<svg width="43" height="43" viewBox="0 0 43 43" fill="none" xmlns="http://www.w3.org/2000/svg">
<path d="M19.885 0.0246201C18.6812 0.149818 17.1595 0.400219 16.2254 0.640984C7.67331 2.79826 1.2689 9.97312 0.142113 18.6793C-0.0216089 19.989 -0.0505009 22.8301 0.0939594 24.0436C0.363619 26.2682 1.09555 28.8204 2.03936 30.7947C2.66535 32.1141 3.02169 32.5475 3.5899 32.7015C4.30257 32.9038 5.11155 32.5667 5.43899 31.9407C5.73754 31.3629 5.63161 30.8139 4.96709 29.4271C4.24479 27.9247 3.8403 26.7498 3.50322 25.1511C3.16615 23.5717 3.06984 20.5669 3.31061 18.9874C3.91734 15.0581 5.52567 11.7355 8.203 8.86559C10.2929 6.63127 13.4902 4.6955 16.4372 3.8769C20.7133 2.69232 24.9508 2.98124 28.9186 4.74366C36.0742 7.91215 40.5814 15.5974 39.7724 23.2538C39.522 25.5459 38.9923 27.4336 37.9907 29.533C37.2973 30.9873 37.2492 31.2762 37.5862 31.9407C37.8559 32.4897 38.2989 32.7497 38.9634 32.7497C39.7917 32.7497 40.1191 32.4608 40.7644 31.151C41.7852 29.0997 42.4594 26.952 42.8157 24.6214C43.0565 23.0997 43.0565 19.989 42.8253 18.4578C41.6985 11.1577 37.1914 5.08073 30.5943 1.98928C28.7453 1.12252 26.7421 0.525417 24.6522 0.207603C23.6699 0.0631447 20.6651 -0.0524254 19.885 0.0246201Z" fill="#239371"/>
<path d="M20.3665 10.811C17.2558 11.2733 14.7133 12.9297 13.2013 15.4722C10.9477 19.2667 11.5545 24.1302 14.6748 27.2217L15.3971 27.9344L14.8096 28.1559C12.0553 29.196 8.64599 31.7096 7.83701 33.2986C7.47105 34.0209 7.31696 34.6662 7.31696 35.4559C7.32659 37.4013 8.20298 38.7015 10.418 40.0112C12.739 41.3788 15.166 42.2744 17.9589 42.7849C19.2783 43.0256 22.7357 43.0738 24.267 42.8812C27.2428 42.4863 29.8913 41.5714 32.5301 40.0016C34.7355 38.7015 35.6312 37.4013 35.6312 35.5233C35.6215 33.9921 35.2652 33.2023 34.0517 31.9792C32.5782 30.5057 30.604 29.1767 28.6682 28.3677C28.1289 28.1366 27.6666 27.944 27.6473 27.9247C27.6281 27.9151 27.8303 27.7032 28.1 27.4528C29.2557 26.4223 30.3921 24.5155 30.8351 22.8879C31.0277 22.1656 31.0566 21.8574 31.047 20.3357C31.047 18.737 31.0181 18.5348 30.7869 17.7547C29.5253 13.6424 26.0294 10.9362 21.8111 10.8014C21.1755 10.7821 20.5303 10.7917 20.3665 10.811ZM23.535 14.2973C25.0567 14.8174 26.4724 16.0212 27.1947 17.3984C28.1385 19.1897 28.177 21.4433 27.3006 23.2249C26.1835 25.4785 23.9684 26.8653 21.4741 26.8557C20.3762 26.8461 19.6731 26.6824 18.5849 26.143C17.9203 25.8252 17.6122 25.5941 16.9476 24.9199C15.7149 23.6776 15.1563 22.4256 15.0504 20.721C14.9637 19.2089 15.4067 17.8029 16.3987 16.4642C17.2173 15.3567 18.739 14.4032 20.1739 14.0854C21.1851 13.8639 22.5142 13.941 23.535 14.2973ZM24.5751 30.3902C27.214 31.0065 29.5253 32.1911 31.49 33.9535C32.3279 34.7047 32.4916 34.9936 32.4242 35.6389C32.3856 36.0627 32.3279 36.1686 31.9523 36.5153C30.9603 37.4013 28.3407 38.6629 26.3087 39.2215C24.7003 39.6549 23.2654 39.8475 21.4741 39.8475C19.2494 39.8475 17.564 39.5682 15.5127 38.8556C13.4902 38.1621 11.1692 36.8716 10.7166 36.1879C10.4373 35.7834 10.4277 35.1863 10.6781 34.7625C10.9285 34.358 12.1805 33.289 13.2398 32.5956C15.0889 31.3629 16.8899 30.6502 19.1627 30.2457C20.2702 30.0531 23.4869 30.1301 24.5751 30.3902Z" fill="#239371"/>
</svg>
