<svg width="31" height="41" viewBox="0 0 31 41" fill="none" xmlns="http://www.w3.org/2000/svg">
<path d="M1.84951 0.200165C1.14494 0.4884 0.696569 0.912746 0.320262 1.64134L0 2.26585V18.9275V35.5891L0.192157 36.0695C0.456373 36.726 1.18497 37.4546 1.84151 37.7188C2.30588 37.903 2.40997 37.911 4.70785 37.935L7.08579 37.959V39.3201C7.08579 40.1048 7.11782 40.7533 7.16586 40.8414C7.31798 41.1216 7.7103 41.0335 8.47893 40.5531C8.86325 40.313 9.19952 40.1128 9.23155 40.1128C9.26357 40.1128 9.60785 40.313 10.0082 40.5531C10.7528 41.0095 11.065 41.0896 11.2812 40.8654C11.3853 40.7613 11.4093 40.5051 11.4093 39.3442V37.951H20.4407H29.4721L29.8244 37.7669C30.0726 37.6388 30.2327 37.4866 30.3608 37.2384L30.545 36.8862L30.529 18.8474L30.5049 0.808662L30.3368 0.58448C30.2487 0.464382 30.0486 0.280231 29.9044 0.176144L29.6402 0H15.9811H2.3219L1.84951 0.200165ZM5.32435 18.9355V36.9902H3.94723C2.73023 36.9902 2.52206 36.9662 2.2018 36.8221C1.72141 36.6059 1.3451 36.2296 1.11291 35.7492L0.920753 35.3489V19.0075C0.920753 4.58775 0.936766 2.61814 1.04085 2.31389C1.26503 1.68137 1.72141 1.24902 2.43399 0.992813C2.62615 0.920753 3.17059 0.888729 4.02729 0.880722H5.32435V18.9355ZM29.4401 1.01683C29.5762 1.13693 29.5842 1.80147 29.5842 18.9755C29.5842 32.7308 29.5602 36.8221 29.4881 36.8942C29.416 36.9662 26.7178 36.9902 17.8386 36.9902H6.28514V18.9355V0.880722H17.7905C28.3832 0.880722 29.304 0.888729 29.4401 1.01683ZM10.4485 38.8317V39.7045L9.95214 39.3922C9.67191 39.2161 9.35965 39.0719 9.25557 39.0719C9.15148 39.0719 8.86325 39.2 8.60704 39.3522C8.35083 39.5043 8.12664 39.6324 8.09462 39.6324C8.0706 39.6324 8.04658 39.2561 8.04658 38.7917V37.951H9.24756H10.4485V38.8317Z" fill="black"/>
<path d="M16.3653 9.81606C12.434 10.5206 9.4396 13.5471 8.79907 17.4543C8.61492 18.5432 8.68698 20.2006 8.9512 21.2254C10.1121 25.685 14.1875 28.5674 18.7752 28.1751C20.5046 28.0229 22.2501 27.3424 23.6272 26.2775C25.9331 24.5001 27.1901 21.914 27.1901 18.9515C27.1901 16.3974 26.3574 14.3478 24.596 12.5143C23.1788 11.0491 21.4334 10.1283 19.4558 9.80805C18.5751 9.66394 17.1819 9.66394 16.3653 9.81606ZM20.1604 10.929C21.6576 11.3613 22.8345 12.0739 23.8994 13.1868C24.6841 14.0035 25.0684 14.5479 25.5167 15.5007C26.9979 18.6633 26.2854 22.4184 23.7393 24.9004C22.9146 25.7091 21.9218 26.3416 20.913 26.7259C19.752 27.1582 19.1996 27.2543 17.8945 27.2463C16.9097 27.2463 16.6135 27.2143 15.9329 27.0301C14.4837 26.6538 13.1386 25.8932 12.1058 24.8764C9.55169 22.3543 8.89515 18.5192 10.4644 15.3086C11.5453 13.0907 13.659 11.3934 16.021 10.8409C17.302 10.5447 18.9674 10.5767 20.1604 10.929Z" fill="black"/>
<path d="M17.7824 13.3068C17.6063 13.555 17.6223 13.9794 17.8144 14.1715C18.1507 14.5078 18.6151 14.2676 18.6151 13.7632C18.6151 13.2908 18.503 13.1307 18.1747 13.1307C17.9826 13.1307 17.8625 13.1867 17.7824 13.3068Z" fill="black"/>
<path d="M16.8698 14.6199C16.7257 14.724 16.6936 14.8201 16.6936 15.1964C16.6936 16.0451 16.9899 16.2452 18.2309 16.2212C19.0155 16.2052 19.1036 16.1892 19.2958 16.013C19.7201 15.6127 19.7681 14.732 19.3678 14.5559C19.0476 14.4037 18.7513 14.6119 18.6873 15.0122C18.6392 15.3165 18.6392 15.3165 18.6232 15.0683C18.6232 14.9322 18.5431 14.74 18.4551 14.6519C18.1428 14.3397 17.7505 14.5158 17.6544 15.0202L17.5904 15.3325L17.5824 15.0362C17.5744 14.748 17.3582 14.4918 17.134 14.4918C17.086 14.4918 16.9659 14.5478 16.8698 14.6199Z" fill="black"/>
<path d="M12.5623 16.5015C11.8017 16.7177 11.1451 17.4943 11.0491 18.2949C10.985 18.7913 11.1131 18.9995 11.4814 18.9995C11.8097 18.9995 11.8897 18.9114 11.9778 18.4551C12.0659 17.9907 12.2901 17.6704 12.6424 17.5023C13.1948 17.2461 13.7553 17.4142 14.1636 17.9587C14.3237 18.1748 14.3317 18.311 14.3718 20.3606C14.4118 22.4023 14.4198 22.5624 14.588 22.8667C14.9482 23.5312 15.7489 24.0196 16.4935 24.0196C16.9018 24.0196 17.4943 23.8115 17.8226 23.5472L18.1188 23.299L18.5352 23.5793C19.0476 23.9235 19.496 24.0516 20.0244 23.9956C20.761 23.9235 21.4416 23.4351 21.7458 22.7786C21.8819 22.4824 21.8979 22.2101 21.8979 19.5199C21.8979 16.6936 21.8899 16.5735 21.7458 16.4935C21.5136 16.3734 21.2974 16.3974 21.1533 16.5575C21.0332 16.6936 21.0172 17.0059 21.0172 19.3758C21.0172 21.8819 21.0092 22.066 20.8571 22.3783C20.4327 23.259 19.1597 23.267 18.7434 22.3863C18.6313 22.1541 18.6152 21.7378 18.6152 19.3918V16.6616L18.4391 16.5415C18.1989 16.3734 18.0067 16.3814 17.8146 16.5735C17.6625 16.7257 17.6545 16.8378 17.6545 19.4719C17.6545 22.074 17.6465 22.2342 17.4943 22.4824C17.03 23.251 16.0291 23.243 15.4607 22.4744C15.3005 22.2582 15.2925 22.1221 15.2525 20.0724C15.2045 17.6144 15.1965 17.5583 14.5719 16.9819C14.0515 16.5015 13.2348 16.3013 12.5623 16.5015Z" fill="black"/>
<path d="M22.6185 16.5735C22.4664 16.7257 22.4584 16.8378 22.4584 20.2165C22.4584 23.5953 22.4664 23.7074 22.6185 23.8595C22.8347 24.0757 23.1389 24.0677 23.2911 23.8435C23.4031 23.6834 23.4192 23.203 23.4192 20.2005C23.4192 16.8378 23.4112 16.7257 23.259 16.5735C23.171 16.4855 23.0268 16.4134 22.9388 16.4134C22.8507 16.4134 22.7066 16.4855 22.6185 16.5735Z" fill="black"/>
</svg>
