<svg width="39" height="42" viewBox="0 0 39 42" fill="none" xmlns="http://www.w3.org/2000/svg">
<mask id="path-1-inside-1_87_249" fill="white">
<path d="M5.91576 0.219894C5.36491 0.557507 5.23164 0.832928 5.23164 1.67696V2.41438H3.73904C2.60181 2.41438 2.13981 2.44992 1.82885 2.55654C1.29578 2.73423 0.576126 3.3828 0.27405 3.9603L0.0341663 4.41341L0.00751253 21.9338C-0.0102566 39.3831 -0.0102566 39.4542 0.167435 39.934C0.407319 40.5825 0.949278 41.1689 1.5712 41.4799L2.07762 41.7286H19.447H36.8163L37.3227 41.4799C37.9447 41.1689 38.4866 40.5825 38.7265 39.934C38.9042 39.4542 38.9042 39.3831 38.8864 21.9338L38.8598 4.41341L38.6199 3.9603C38.3178 3.3828 37.5982 2.73423 37.0651 2.55654C36.7541 2.44992 36.2921 2.41438 35.1549 2.41438H33.6623V1.69473C33.6623 0.832928 33.5113 0.521969 32.9515 0.202126C32.6317 0.0244331 32.4895 -0.00222015 31.8854 0.0333176C31.0591 0.0688553 30.7926 0.219894 30.4905 0.815159C30.3395 1.10835 30.2862 1.35712 30.2862 1.81023V2.41438H28.909H27.5319V1.7125C27.5319 0.93066 27.372 0.58416 26.8301 0.219894C26.3947 -0.0732956 25.293 -0.0732956 24.8577 0.219894C24.3157 0.58416 24.1558 0.93066 24.1558 1.7125V2.41438H19.447H14.7381V1.7125C14.7381 0.93066 14.5782 0.58416 14.0363 0.219894C13.6009 -0.0732956 12.4992 -0.0732956 12.0639 0.219894C11.5219 0.58416 11.362 0.93066 11.362 1.7125V2.41438H9.98489H8.60778V1.81023C8.60778 1.35712 8.55448 1.10835 8.41232 0.815159C8.10136 0.21101 7.83483 0.0688553 6.98191 0.0333176C6.34222 0.00666428 6.20895 0.0333176 5.91576 0.219894ZM7.41725 1.17943C7.51498 1.25939 7.54163 1.60589 7.54163 2.8675C7.54163 4.66218 7.52387 4.72437 6.90195 4.72437C6.2356 4.72437 6.20895 4.64441 6.20895 2.90303C6.20895 1.35712 6.24449 1.17054 6.56433 1.04616C6.75091 0.975082 7.26621 1.05504 7.41725 1.17943ZM13.5032 1.16166C13.7075 1.33047 13.7164 1.37489 13.7431 2.78754C13.7697 4.59999 13.7431 4.67995 13.0501 4.67995C12.3571 4.67995 12.3304 4.59999 12.3571 2.78754C12.3837 1.37489 12.3926 1.33047 12.597 1.16166C12.7125 1.07281 12.9168 0.992851 13.0501 0.992851C13.1833 0.992851 13.3877 1.07281 13.5032 1.16166ZM26.297 1.16166C26.5013 1.33047 26.5102 1.37489 26.5369 2.78754C26.5635 4.59999 26.5369 4.67995 25.8439 4.67995C25.1509 4.67995 25.1242 4.59999 25.1509 2.78754C25.1775 1.37489 25.1864 1.33047 25.3908 1.16166C25.5063 1.07281 25.7106 0.992851 25.8439 0.992851C25.9771 0.992851 26.1815 1.07281 26.297 1.16166ZM32.5695 1.23273C32.6495 1.33935 32.685 1.81912 32.685 2.89415C32.685 4.63553 32.6495 4.72437 32.0098 4.72437C31.3612 4.72437 31.3434 4.67107 31.3701 2.83196L31.3967 1.22385L31.6188 1.09947C31.8943 0.957314 32.4273 1.02839 32.5695 1.23273ZM5.23164 4.09357C5.23164 4.66218 5.26718 4.83987 5.43599 5.07976C5.7736 5.58618 6.04014 5.71945 6.75979 5.76387C7.31952 5.79941 7.46167 5.77275 7.79929 5.59506C8.35902 5.29299 8.60778 4.80434 8.60778 3.99584V3.39169H9.97601H11.3442L11.3709 4.13799C11.4153 5.01757 11.5575 5.27522 12.1616 5.58618C12.9346 5.98598 14.054 5.77275 14.5071 5.14195C14.6493 4.94649 14.7026 4.72437 14.7293 4.13799L14.7559 3.39169H19.447H24.138L24.1647 4.13799C24.2091 5.01757 24.3513 5.27522 24.9554 5.58618C25.7284 5.98598 26.8478 5.77275 27.3009 5.14195C27.4431 4.94649 27.4964 4.72437 27.5231 4.13799L27.5497 3.39169H28.9179H30.2862V3.99584C30.2862 4.80434 30.5349 5.29299 31.0947 5.59506C31.4323 5.77275 31.5744 5.79941 32.1341 5.76387C32.8538 5.71945 33.1203 5.58618 33.4668 5.07976C33.6268 4.83987 33.6623 4.66218 33.6623 4.09357V3.39169H34.9328C36.3987 3.39169 36.7452 3.47165 37.2161 3.88923C37.7847 4.40453 37.8647 4.67995 37.9091 6.2081L37.9447 7.56744H19.447H0.949278L0.984816 6.2081C1.02924 4.7066 1.10032 4.44007 1.62451 3.93365C2.0865 3.48053 2.44189 3.40057 3.92561 3.39169H5.23164V4.09357ZM37.9091 23.9773C37.8825 38.7701 37.8736 39.3387 37.7137 39.6408C37.4827 40.0761 37.225 40.3426 36.8163 40.5559L36.4609 40.7513H19.447C3.0105 40.7513 2.42412 40.7424 2.12204 40.5825C1.6867 40.3515 1.42016 40.0939 1.20693 39.6852L1.01147 39.3298L0.984816 23.9773L0.967047 8.63359H19.447H37.9269L37.9091 23.9773Z"/>
</mask>
<path d="M5.91576 0.219894C5.36491 0.557507 5.23164 0.832928 5.23164 1.67696V2.41438H3.73904C2.60181 2.41438 2.13981 2.44992 1.82885 2.55654C1.29578 2.73423 0.576126 3.3828 0.27405 3.9603L0.0341663 4.41341L0.00751253 21.9338C-0.0102566 39.3831 -0.0102566 39.4542 0.167435 39.934C0.407319 40.5825 0.949278 41.1689 1.5712 41.4799L2.07762 41.7286H19.447H36.8163L37.3227 41.4799C37.9447 41.1689 38.4866 40.5825 38.7265 39.934C38.9042 39.4542 38.9042 39.3831 38.8864 21.9338L38.8598 4.41341L38.6199 3.9603C38.3178 3.3828 37.5982 2.73423 37.0651 2.55654C36.7541 2.44992 36.2921 2.41438 35.1549 2.41438H33.6623V1.69473C33.6623 0.832928 33.5113 0.521969 32.9515 0.202126C32.6317 0.0244331 32.4895 -0.00222015 31.8854 0.0333176C31.0591 0.0688553 30.7926 0.219894 30.4905 0.815159C30.3395 1.10835 30.2862 1.35712 30.2862 1.81023V2.41438H28.909H27.5319V1.7125C27.5319 0.93066 27.372 0.58416 26.8301 0.219894C26.3947 -0.0732956 25.293 -0.0732956 24.8577 0.219894C24.3157 0.58416 24.1558 0.93066 24.1558 1.7125V2.41438H19.447H14.7381V1.7125C14.7381 0.93066 14.5782 0.58416 14.0363 0.219894C13.6009 -0.0732956 12.4992 -0.0732956 12.0639 0.219894C11.5219 0.58416 11.362 0.93066 11.362 1.7125V2.41438H9.98489H8.60778V1.81023C8.60778 1.35712 8.55448 1.10835 8.41232 0.815159C8.10136 0.21101 7.83483 0.0688553 6.98191 0.0333176C6.34222 0.00666428 6.20895 0.0333176 5.91576 0.219894ZM7.41725 1.17943C7.51498 1.25939 7.54163 1.60589 7.54163 2.8675C7.54163 4.66218 7.52387 4.72437 6.90195 4.72437C6.2356 4.72437 6.20895 4.64441 6.20895 2.90303C6.20895 1.35712 6.24449 1.17054 6.56433 1.04616C6.75091 0.975082 7.26621 1.05504 7.41725 1.17943ZM13.5032 1.16166C13.7075 1.33047 13.7164 1.37489 13.7431 2.78754C13.7697 4.59999 13.7431 4.67995 13.0501 4.67995C12.3571 4.67995 12.3304 4.59999 12.3571 2.78754C12.3837 1.37489 12.3926 1.33047 12.597 1.16166C12.7125 1.07281 12.9168 0.992851 13.0501 0.992851C13.1833 0.992851 13.3877 1.07281 13.5032 1.16166ZM26.297 1.16166C26.5013 1.33047 26.5102 1.37489 26.5369 2.78754C26.5635 4.59999 26.5369 4.67995 25.8439 4.67995C25.1509 4.67995 25.1242 4.59999 25.1509 2.78754C25.1775 1.37489 25.1864 1.33047 25.3908 1.16166C25.5063 1.07281 25.7106 0.992851 25.8439 0.992851C25.9771 0.992851 26.1815 1.07281 26.297 1.16166ZM32.5695 1.23273C32.6495 1.33935 32.685 1.81912 32.685 2.89415C32.685 4.63553 32.6495 4.72437 32.0098 4.72437C31.3612 4.72437 31.3434 4.67107 31.3701 2.83196L31.3967 1.22385L31.6188 1.09947C31.8943 0.957314 32.4273 1.02839 32.5695 1.23273ZM5.23164 4.09357C5.23164 4.66218 5.26718 4.83987 5.43599 5.07976C5.7736 5.58618 6.04014 5.71945 6.75979 5.76387C7.31952 5.79941 7.46167 5.77275 7.79929 5.59506C8.35902 5.29299 8.60778 4.80434 8.60778 3.99584V3.39169H9.97601H11.3442L11.3709 4.13799C11.4153 5.01757 11.5575 5.27522 12.1616 5.58618C12.9346 5.98598 14.054 5.77275 14.5071 5.14195C14.6493 4.94649 14.7026 4.72437 14.7293 4.13799L14.7559 3.39169H19.447H24.138L24.1647 4.13799C24.2091 5.01757 24.3513 5.27522 24.9554 5.58618C25.7284 5.98598 26.8478 5.77275 27.3009 5.14195C27.4431 4.94649 27.4964 4.72437 27.5231 4.13799L27.5497 3.39169H28.9179H30.2862V3.99584C30.2862 4.80434 30.5349 5.29299 31.0947 5.59506C31.4323 5.77275 31.5744 5.79941 32.1341 5.76387C32.8538 5.71945 33.1203 5.58618 33.4668 5.07976C33.6268 4.83987 33.6623 4.66218 33.6623 4.09357V3.39169H34.9328C36.3987 3.39169 36.7452 3.47165 37.2161 3.88923C37.7847 4.40453 37.8647 4.67995 37.9091 6.2081L37.9447 7.56744H19.447H0.949278L0.984816 6.2081C1.02924 4.7066 1.10032 4.44007 1.62451 3.93365C2.0865 3.48053 2.44189 3.40057 3.92561 3.39169H5.23164V4.09357ZM37.9091 23.9773C37.8825 38.7701 37.8736 39.3387 37.7137 39.6408C37.4827 40.0761 37.225 40.3426 36.8163 40.5559L36.4609 40.7513H19.447C3.0105 40.7513 2.42412 40.7424 2.12204 40.5825C1.6867 40.3515 1.42016 40.0939 1.20693 39.6852L1.01147 39.3298L0.984816 23.9773L0.967047 8.63359H19.447H37.9269L37.9091 23.9773Z" fill="#239371" stroke="black" stroke-width="2" mask="url(#path-1-inside-1_87_249)"/>
<path d="M15.3676 14.6194L17.14 12.8547C17.6646 12.3301 18.1475 11.8511 18.5033 11.5031C18.6809 11.3294 18.8285 11.187 18.934 11.0871C18.9862 11.0377 19.0307 10.9956 19.0648 10.9651C19.0811 10.9505 19.1002 10.9339 19.1185 10.9192C19.1267 10.9126 19.1432 10.8995 19.1635 10.886C19.1729 10.8796 19.1932 10.8663 19.2201 10.8528C19.2247 10.8504 19.3182 10.7991 19.4467 10.799C19.5516 10.799 19.6293 10.8324 19.6449 10.8391C19.673 10.8511 19.6939 10.864 19.7045 10.8703C19.7262 10.8833 19.7428 10.8957 19.7494 10.9006C19.7644 10.9118 19.7771 10.9224 19.7836 10.9279C19.7984 10.9405 19.8152 10.955 19.8304 10.969C19.8622 10.998 19.9057 11.0389 19.9574 11.0881C20.0617 11.1873 20.209 11.3295 20.3871 11.5031C20.7439 11.851 21.2292 12.3296 21.7543 12.8547L23.5267 14.6194H23.6156L21.4037 12.4074C20.5941 11.5979 20.0695 11.0849 19.7269 10.7746C19.608 10.6669 19.5155 10.591 19.4467 10.5363C19.3779 10.591 19.286 10.6672 19.1674 10.7746C18.9961 10.9297 18.7793 11.1353 18.5043 11.4035L17.4906 12.4074L15.2787 14.6194H15.3676ZM29.4691 34.7102C29.4776 34.6267 29.4878 34.5111 29.4945 34.3508C29.5129 33.9087 29.5199 33.1879 29.5199 32.009V28.9153L29.6654 28.7688L31.7533 26.6721C32.549 25.8719 33.0626 25.3426 33.3763 24.9944C33.4838 24.875 33.5618 24.7813 33.6185 24.7102C33.5616 24.6395 33.4845 24.5461 33.3773 24.4279C33.2203 24.2548 33.0137 24.0356 32.7465 23.761L31.7543 22.758L29.5199 20.5237V17.3674C29.5199 16.0836 29.5148 15.3543 29.4955 14.9319C29.4906 14.8246 29.4847 14.7437 29.4789 14.6828C29.4667 14.6817 29.4537 14.681 29.4398 14.6799L29.4447 15.1145L29.4711 17.9572L29.4955 20.5969L31.306 22.4065L33.6146 24.7151L33.2611 25.0686L31.2797 27.049H31.2806L29.4535 28.884V34.7112C29.4588 34.7107 29.4641 34.7107 29.4691 34.7102ZM9.4408 28.884L7.61365 27.049L5.63318 25.0686L5.29138 24.7278C5.35078 24.8005 5.42981 24.893 5.53357 25.008C5.69348 25.1852 5.90221 25.4074 6.16736 25.6819L7.14099 26.6721L9.22888 28.7688L9.37439 28.9153V32.009C9.37439 33.1879 9.3814 33.9087 9.39978 34.3508C9.40645 34.511 9.41567 34.6267 9.42419 34.7102C9.42956 34.7107 9.43512 34.7106 9.4408 34.7112V28.884ZM19.4916 38.8371C19.5352 38.8067 19.6012 38.7579 19.6967 38.675C19.8486 38.5431 20.051 38.3528 20.3334 38.0783L21.4486 36.9768L23.4926 34.9416L23.6361 34.7981L23.8402 34.7961L26.7992 34.7697C28.2154 34.7563 28.9393 34.7473 29.3275 34.7229C29.3345 34.7224 29.3413 34.7214 29.348 34.7209H23.6078L19.4916 38.8371ZM19.0931 38.5285L17.1127 36.5471L15.2865 34.7209H9.54626C9.55291 34.7214 9.55984 34.7224 9.56677 34.7229C9.76096 34.7351 10.0391 34.7433 10.4457 34.7502L12.0951 34.7697L15.0541 34.7961L15.2572 34.7981L15.4017 34.9416L17.4457 36.9768C18.3886 37.9153 18.8939 38.4114 19.1976 38.675C19.2914 38.7564 19.3562 38.8055 19.3998 38.8362L19.0931 38.5285ZM9.37439 20.5149L9.22888 20.6604L7.14099 22.757C6.36774 23.5347 5.85348 24.0648 5.53357 24.4182C5.42198 24.5415 5.33999 24.6393 5.27966 24.7141H5.28064L9.39783 20.5969L9.42322 17.9572L9.44958 15.1145L9.45349 14.6779C9.44161 14.679 9.4305 14.6788 9.42029 14.6799C9.41308 14.7407 9.40593 14.8283 9.39978 14.9533C9.37944 15.3669 9.37439 16.0875 9.37439 17.3938V20.5149Z" fill="#239371" stroke="black"/>
<path d="M18.6333 31.5367C19.2509 31.5356 19.8399 31.4837 20.2144 31.3912V31.3902C21.4099 31.0933 22.7616 30.3355 23.5513 29.5367L23.7017 29.3765L23.7036 29.3746C23.7939 29.2738 23.8787 29.1709 23.9595 29.0699L23.8003 29.2154L23.2847 29.6861L23.2837 29.6871L23.0034 29.9283C22.3359 30.4732 21.5555 30.9085 20.7241 31.192H20.7251C20.4018 31.3074 20.1529 31.3822 19.8472 31.4234C19.5544 31.4629 19.2228 31.4693 18.7397 31.4693H18.7358C17.9257 31.4772 17.5218 31.4424 17.0093 31.316L16.7817 31.2554L16.7769 31.2545C14.5644 30.6185 12.9365 29.0826 12.1978 26.9615L12.062 26.5298V26.5279C11.9192 26.0129 11.8634 25.2871 11.8726 24.6011C11.8806 24.0017 11.9387 23.378 12.0562 22.898L12.1099 22.7007L12.1108 22.6988C12.4343 21.6704 12.839 20.9306 13.5034 20.1871L13.8052 19.8677L13.8071 19.8658C14.5687 19.1043 15.5152 18.5087 16.4858 18.1978V18.1968C16.6543 18.1425 17.0223 18.0597 17.3618 17.9898C17.7047 17.9193 18.0771 17.8503 18.2632 17.8297V17.8316C18.3492 17.8221 18.5102 17.8247 18.6558 17.9537C18.8283 18.1066 18.8291 18.3028 18.8257 18.3619C18.8189 18.4813 18.7695 18.5731 18.7642 18.5836C18.7342 18.6432 18.6926 18.7029 18.6597 18.7486C18.5873 18.8491 18.4837 18.9776 18.3657 19.1099C18.1769 19.3252 17.9363 19.6855 17.7202 20.0748C17.557 20.3689 17.4225 20.6525 17.3384 20.8736L17.272 21.0718V21.0748L17.2163 21.2867C16.9644 22.3615 17.046 23.6227 17.4546 24.7173L17.4536 24.7183C17.782 25.5791 18.1589 26.1495 18.8374 26.8199L18.8384 26.8189C19.8822 27.8464 21.0281 28.321 22.5083 28.3375L22.5073 28.3384L23.4673 28.3463L24.4497 28.356C24.5106 28.2481 24.5582 28.1547 24.5894 28.0767C24.598 28.0551 24.6033 28.0354 24.6089 28.0191C24.6005 28.0201 24.5916 28.0199 24.5825 28.0211C24.4528 28.0379 24.2792 28.0732 24.0464 28.1314H24.0474C22.0878 28.6262 20.2169 28.1289 18.8179 26.73C17.6922 25.6044 17.1255 24.2144 17.1255 22.6265V22.6226C17.1339 21.6218 17.3161 20.8511 17.7642 20.067L17.9731 19.7291L17.9741 19.7271C18.1819 19.418 18.492 19.0667 18.8022 18.7623C19.0326 18.5363 19.2829 18.3173 19.5122 18.1509L19.7329 18.0035L19.7349 18.0025C19.7775 17.9774 19.8021 17.9527 19.8169 17.9351L19.7876 17.9234L19.7856 17.9224C19.4245 17.8305 18.7948 17.79 18.1646 17.8267L17.895 17.8472H17.8911C15.1223 18.0866 12.6509 20.2317 11.9653 22.9752L11.9048 23.2427V23.2437L11.8423 23.5875C11.3035 27.0222 13.3839 30.3121 16.7144 31.3072L17.0522 31.399C17.4288 31.4876 18.0179 31.5378 18.6333 31.5367Z" fill="#239371" stroke="black"/>
<path d="M25.403 23.0627L26.0163 22.4845C26.2351 22.2788 26.3935 22.1165 26.5046 21.9826C26.6176 21.8464 26.6619 21.7624 26.6784 21.716C26.6898 21.684 26.6859 21.6785 26.6843 21.673C26.678 21.6522 26.6553 21.5994 26.572 21.5002L26.9548 21.1789L26.9333 21.1964L26.571 21.5002L26.5671 21.4943C26.5282 21.4465 26.5108 21.4316 26.5036 21.4259C26.5006 21.4236 26.4934 21.4178 26.4675 21.4084C26.4275 21.3938 26.3715 21.3794 26.28 21.3625L25.8806 21.3009C25.6634 21.2737 25.4489 21.2415 25.2761 21.213C25.1429 21.1911 25.008 21.1654 24.9196 21.1437V21.1447C24.913 21.1434 24.9066 21.1413 24.9001 21.1398C24.8908 21.1373 24.8817 21.1353 24.8737 21.133V21.132C24.7715 21.102 24.6997 21.0499 24.6687 21.0255C24.6235 20.99 24.5856 20.9515 24.5564 20.9191C24.497 20.8533 24.4388 20.7738 24.3855 20.6945C24.3313 20.6139 24.2746 20.5218 24.2185 20.423L24.0554 20.1144C23.8027 19.6091 23.6759 19.403 23.5857 19.3107C23.5691 19.2938 23.5587 19.2861 23.5544 19.2834C23.5511 19.2812 23.549 19.2803 23.5466 19.2794C23.5453 19.279 23.5425 19.2801 23.5398 19.2794L23.8191 19.8224L24.1745 20.5148L24.1765 20.5197C24.3132 20.7931 24.3968 20.9345 24.4597 21.0158C24.5039 21.0728 24.5279 21.0876 24.5544 21.0998C24.6388 21.1297 24.8305 21.1753 25.0388 21.2101L25.2614 21.2414H25.2624C25.4188 21.2598 25.572 21.282 25.6911 21.3058C25.7474 21.3171 25.8142 21.3327 25.8747 21.3537C25.9017 21.363 25.9556 21.3827 26.0114 21.4181C26.0392 21.4357 26.0898 21.4701 26.1374 21.5275C26.1863 21.5864 26.2546 21.6982 26.2546 21.8537C26.2546 21.9834 26.2024 22.0795 26.1989 22.0861C26.1846 22.1146 26.1703 22.1378 26.1618 22.1505C26.1439 22.1775 26.1237 22.2032 26.1081 22.2228C26.0755 22.264 26.0335 22.3136 25.988 22.3654L25.6404 22.7462L25.4626 22.9455C25.4073 23.0105 25.3561 23.0731 25.3132 23.13C25.3003 23.1471 25.2897 23.164 25.279 23.1789L25.403 23.0627ZM21.4773 25.4982C21.5586 25.4907 21.6964 25.4475 21.9734 25.3205L22.2995 25.1642L22.3025 25.1623L23.1999 24.7267L23.4294 24.6154L23.655 24.7355L24.4011 25.1359L24.404 25.1369C24.6969 25.2961 24.9076 25.3893 25.0603 25.4406L24.6862 25.2316L24.0466 24.8771C23.8913 24.7938 23.7249 24.7164 23.5857 24.6613C23.515 24.6333 23.4567 24.6129 23.4148 24.6007C23.4125 24.6001 23.41 24.6003 23.4079 24.5998C23.4061 24.6002 23.4041 24.6002 23.4021 24.6007C23.361 24.6118 23.3041 24.63 23.2351 24.6554C23.1663 24.6808 23.0904 24.7111 23.0124 24.7453L22.7761 24.8576L22.7663 24.8625L22.5066 24.9845C22.4246 25.0218 22.3483 25.0548 22.282 25.0822C22.2171 25.1089 22.1535 25.1339 22.0993 25.1515C22.0746 25.1596 22.0364 25.1719 21.9948 25.1798C21.9761 25.1834 21.9351 25.19 21.8845 25.1896C21.859 25.1894 21.814 25.1876 21.7605 25.174C21.7228 25.1644 21.6596 25.1435 21.5935 25.0968L21.528 25.0412C21.4384 24.9514 21.4077 24.8532 21.4001 24.8283C21.3882 24.7891 21.3831 24.7555 21.3806 24.7365C21.3755 24.6973 21.3747 24.6614 21.3747 24.6378C21.3747 24.5874 21.3783 24.531 21.3835 24.4767C21.394 24.3681 21.4141 24.2319 21.4431 24.09V24.089C21.541 23.5715 21.5491 23.3983 21.5212 23.2882C21.505 23.2245 21.4698 23.1532 21.3249 22.9953L21.1394 22.8058L21.1374 22.8029C20.9882 22.6536 20.8483 22.5097 20.7448 22.3966C20.6941 22.3412 20.6462 22.2876 20.6091 22.2414C20.5914 22.2193 20.5692 22.1892 20.5486 22.1574C20.5386 22.142 20.5227 22.1164 20.5075 22.0841C20.5015 22.0712 20.4757 22.019 20.4636 21.9445L20.4577 21.8625L20.4704 21.7482C20.4945 21.644 20.5473 21.5694 20.5827 21.5285C20.6302 21.4737 20.6792 21.4405 20.7058 21.424C20.7598 21.3905 20.812 21.3711 20.8396 21.3615C20.9013 21.3399 20.971 21.3233 21.0329 21.3107C21.1624 21.2843 21.3302 21.2611 21.5085 21.2423V21.2414C21.9806 21.1909 22.1278 21.1444 22.2155 21.0851C22.2769 21.0436 22.3434 20.9725 22.4568 20.7677L22.5876 20.5148V20.5128L22.9255 19.8293L23.1599 19.3537C23.1565 19.3592 23.1526 19.3645 23.1491 19.3703C23.1031 19.4465 23.0507 19.5373 22.9958 19.6378L22.8259 19.963L22.8249 19.966L22.6257 20.339C22.5605 20.4548 22.4971 20.5604 22.4382 20.6515C22.3802 20.7412 22.3192 20.8281 22.2595 20.8986C22.2302 20.9332 22.1921 20.9749 22.1472 21.0128C22.1187 21.0369 22.0409 21.0985 21.9265 21.132L21.9275 21.133C21.9188 21.1356 21.9086 21.1371 21.8982 21.1398C21.8927 21.1411 21.8872 21.1436 21.8816 21.1447L21.8806 21.1437C21.7914 21.1654 21.6542 21.1917 21.5212 21.214L20.904 21.3097L20.8972 21.3107L20.5915 21.3566C20.5042 21.3724 20.4298 21.3883 20.3669 21.4054C20.2399 21.4401 20.1838 21.4722 20.1618 21.4884C20.1503 21.497 20.1499 21.499 20.1462 21.5089C20.1379 21.5313 20.1247 21.5858 20.1247 21.7033C20.1247 21.7788 20.1286 21.8018 20.1306 21.8107C20.1309 21.8126 20.133 21.8223 20.1511 21.8507C20.2092 21.9421 20.3355 22.0837 20.6609 22.423L20.6599 22.424L21.3396 23.1105L21.5154 23.2892L21.4782 23.5363L21.3542 24.3625V24.3634L21.3064 24.6984C21.2682 24.9881 21.2584 25.1507 21.2673 25.256C21.272 25.3113 21.2807 25.3297 21.2829 25.3341L21.3376 25.4005C21.4108 25.4737 21.4437 25.4932 21.4538 25.4982L21.4558 25.4992H21.4587C21.4622 25.4993 21.4683 25.499 21.4773 25.4982ZM25.5124 25.2209C25.521 25.0621 25.4914 24.8 25.3972 24.2746L25.2546 23.5187L25.2273 23.3761C25.2285 23.4024 25.229 23.4313 25.2312 23.4621C25.2367 23.5391 25.2446 23.6248 25.2556 23.714L25.2966 23.9875L25.2976 23.9894L25.4216 24.7091L25.5114 25.2316C25.5117 25.2281 25.5122 25.2246 25.5124 25.2209Z" fill="#239371" stroke="black"/>
</svg>
