<svg width="36" height="41" viewBox="0 0 36 41" fill="none" xmlns="http://www.w3.org/2000/svg">
<path d="M26.5601 0.0176163C24.8304 0.230751 23.2811 0.943935 22.0432 2.08339L21.3956 2.69001V1.66532C21.3956 0.534058 21.3382 0.378307 20.912 0.378307C20.4365 0.378307 20.3709 0.509468 20.3463 1.64072L20.3135 2.67361H19.543H18.7724V1.65712C18.7724 0.534058 18.715 0.378307 18.2888 0.378307C17.8133 0.378307 17.7477 0.509468 17.7231 1.64072L17.6903 2.67361H16.9198H16.1492V1.66532C16.1492 0.788181 16.1328 0.632427 16.0017 0.517662C15.7967 0.329121 15.4442 0.345516 15.2475 0.542255C15.0999 0.689812 15.0835 0.812775 15.0835 1.68991V2.67361H14.3048H13.526V1.66532C13.526 0.52586 13.4604 0.378307 12.9686 0.378307C12.5423 0.378307 12.4603 0.59964 12.4603 1.7063V2.67361H11.6816H10.9028V1.66532C10.9028 0.52586 10.8372 0.378307 10.3454 0.378307C9.91909 0.378307 9.83712 0.59964 9.83712 1.7063V2.67361H9.05835H8.27959V1.66532C8.27959 0.52586 8.21401 0.378307 7.72216 0.378307C7.29589 0.378307 7.21391 0.59964 7.21391 1.7063V2.67361H6.43515H5.65638V1.66532C5.65638 0.52586 5.5908 0.378307 5.09895 0.378307C4.67268 0.378307 4.5907 0.59964 4.5907 1.7063V2.67361H3.81194H3.03318V1.7063C3.03318 0.583244 2.9512 0.378307 2.50853 0.378307C2.03308 0.378307 1.9675 0.542255 1.9675 1.6981V2.7146L1.57402 2.85396C1.03298 3.0507 0.541129 3.49336 0.270611 4.0508C0.0656728 4.46887 0.0410803 4.61642 0.0164877 5.60013C-0.0163024 6.66581 -0.0163024 6.6822 0.188636 6.88714C0.442759 7.14126 0.680487 7.15765 0.90182 6.93632C1.04938 6.78877 1.06577 6.66581 1.06577 5.87064C1.06577 4.64102 1.23792 4.23114 1.90192 3.89504C2.19703 3.74749 2.54132 3.73929 11.4356 3.73929C16.5181 3.73929 20.6578 3.76388 20.6415 3.79667C20.3545 4.3787 20.0594 5.07549 19.9283 5.50175C19.543 6.73958 19.5102 8.3381 19.8381 9.56773C19.9283 9.90383 20.002 10.2071 20.002 10.2399C20.002 10.4121 19.5266 10.0022 18.3625 8.86274C17.6166 8.12496 16.9362 7.53474 16.723 7.41998C16.1656 7.14126 15.3459 7.11667 14.7146 7.3544C14.2884 7.51015 14.0588 7.70689 12.821 8.92012C12.0504 9.6743 11.4028 10.3055 11.3864 10.3137C11.3701 10.3137 10.4273 10.3465 9.29608 10.3711L7.2385 10.4203L6.76305 10.6662C6.23841 10.9367 5.76295 11.4696 5.57441 12.0024C5.50063 12.2073 5.45964 12.9123 5.43505 14.1501C5.41865 15.1666 5.38586 16.0848 5.36127 16.1913C5.33668 16.3061 4.73826 16.9865 4.00868 17.7243C2.47574 19.29 2.27081 19.6261 2.27081 20.5852C2.27081 21.5033 2.42656 21.7574 3.96769 23.3314C5.05796 24.4298 5.32028 24.7495 5.36127 24.9791C5.38586 25.1348 5.41865 26.0693 5.43505 27.0612C5.45964 29.1188 5.52522 29.3729 6.16463 30.0287C6.80403 30.6763 7.04996 30.7419 9.38625 30.7993C10.5175 30.8239 11.452 30.8567 11.4684 30.8567C11.4766 30.8649 12.1078 31.4797 12.8702 32.2257C14.313 33.652 14.5999 33.8406 15.3704 33.939C15.8541 34.0045 16.6165 33.8242 17.0018 33.5619C17.1411 33.4635 17.8297 32.8241 18.5265 32.1355C19.2479 31.4223 19.8873 30.8649 20.002 30.8403C20.1168 30.8157 21.0349 30.7829 22.0514 30.7665C23.2892 30.7419 23.9942 30.7009 24.1992 30.6272C24.691 30.455 25.2567 29.9632 25.5272 29.4795L25.7813 29.0286L25.8223 27.0202C25.8551 25.5365 25.8961 24.9627 25.978 24.8069C26.0354 24.6922 26.6666 24.0118 27.3798 23.2904C28.8062 21.8394 29.0193 21.4869 29.0193 20.5934C29.0193 19.6507 28.8718 19.4129 27.3716 17.8718C25.9452 16.4209 25.8223 16.2323 25.8223 15.5519C25.8223 15.3142 25.8469 15.2814 26.0108 15.3224C26.8388 15.5355 28.4947 15.4453 29.5276 15.1256C29.8145 15.0437 30.0686 14.9699 30.1096 14.9699C30.1424 14.9699 30.167 19.7654 30.167 25.6267C30.167 34.4472 30.1506 36.3326 30.0522 36.554C29.9128 36.8983 29.5112 37.2344 29.1177 37.3491C28.675 37.4721 2.66429 37.4639 2.17244 37.3409C1.73797 37.2344 1.26251 36.7835 1.14775 36.3736C1.09856 36.1851 1.06577 31.4633 1.06577 23.11C1.06577 8.73158 1.11496 9.88743 0.532932 9.88743C-0.040895 9.88743 -0.00810487 8.82175 0.0164877 23.4215L0.0410803 36.5704L0.237821 36.9966C0.475549 37.5213 1.06577 38.0951 1.58221 38.2918L1.9675 38.4394V39.4477C1.9675 40.374 1.98389 40.4806 2.13965 40.6363C2.27081 40.7675 2.36918 40.8003 2.57411 40.7593C2.98399 40.6773 3.03318 40.538 3.03318 39.4641V38.4968H3.81194H4.5907V39.4805C4.5907 40.3576 4.6071 40.4806 4.75465 40.6281C4.96779 40.8413 5.2793 40.8413 5.49243 40.6281C5.63999 40.4806 5.65638 40.3576 5.65638 39.4805V38.4968H6.43515H7.21391V39.4559C7.21391 39.9887 7.2467 40.4642 7.27949 40.5134C7.36147 40.6363 7.66477 40.7921 7.82053 40.7921C7.89431 40.7921 8.02547 40.7183 8.11564 40.6281C8.26319 40.4806 8.27959 40.3576 8.27959 39.4805V38.4968H9.05835H9.83712V39.4723C9.83712 40.4314 9.84532 40.456 10.0503 40.6199C10.3208 40.8331 10.5257 40.8413 10.7388 40.6281C10.8864 40.4806 10.9028 40.3576 10.9028 39.4805V38.4968H11.6816H12.4603V39.4395C12.4603 40.3412 12.4685 40.3986 12.6653 40.5871C12.903 40.8331 13.1407 40.8495 13.3621 40.6281C13.5096 40.4806 13.526 40.3576 13.526 39.4805V38.4968H14.3048H15.0835V39.4395C15.0835 40.3412 15.0917 40.3986 15.2885 40.5871C15.518 40.8249 15.7065 40.8413 15.9689 40.6609C16.141 40.5462 16.1492 40.4806 16.1492 39.5133V38.4968H16.928H17.7067V39.4395C17.7067 40.3412 17.7149 40.3986 17.9117 40.5871C18.1412 40.8249 18.3298 40.8413 18.5921 40.6609C18.7642 40.5462 18.7724 40.4806 18.7724 39.5133V38.4968H19.5512H20.3299V39.3739C20.3299 40.3576 20.4201 40.6199 20.7562 40.7429C20.9202 40.8003 21.0267 40.7839 21.1825 40.6773C21.3956 40.5462 21.3956 40.5298 21.3956 39.5215V38.4968H22.2154H23.0269L23.0515 39.5379C23.0761 40.5789 23.0761 40.5789 23.3056 40.7101C23.5024 40.8167 23.5516 40.8167 23.7565 40.7101C23.9778 40.5789 23.9778 40.5789 24.0024 39.5379L24.027 38.4968H24.8386H25.6583V39.5215C25.6583 40.5298 25.6583 40.5462 25.8715 40.6773C26.0272 40.7839 26.1338 40.8003 26.2977 40.7429C26.6338 40.6199 26.724 40.3576 26.724 39.3739V38.4968H27.5028H28.2815V39.5133C28.2815 40.4806 28.2897 40.5462 28.4619 40.6609C28.7078 40.8331 28.88 40.8249 29.1095 40.6363C29.2898 40.4888 29.3062 40.4068 29.3472 39.4313L29.3882 38.3902L29.7243 38.2754C30.2162 38.1115 30.6916 37.6606 30.9785 37.0868L31.2326 36.5868V25.5037V14.4207L31.6671 14.1255C33.1673 13.1336 34.3395 11.4696 34.815 9.6661C34.9871 8.9857 35.0281 8.6824 35.0281 7.71509C35.0281 6.73958 34.9953 6.45267 34.815 5.77227C34.069 2.96053 31.8475 0.812775 29.0521 0.181564C28.4455 0.0504036 27.0683 -0.0397682 26.5601 0.0176163ZM28.3963 1.15707C29.8637 1.41119 30.9867 2.00142 32.0524 3.08349C33.1591 4.19835 33.7493 5.43618 33.946 7.0265C34.2739 9.68249 32.7492 12.4451 30.2735 13.6911C30.044 13.8058 29.5276 14.0026 29.1259 14.1174C28.134 14.4125 26.6748 14.4371 25.7157 14.1665C24.4041 13.7976 23.3958 13.1992 22.5351 12.2975C21.7071 11.4204 21.2399 10.576 20.8874 9.3382C20.6169 8.37909 20.6415 6.91993 20.9366 5.92803C21.3136 4.65741 21.8875 3.73109 22.822 2.86216C23.7565 1.98502 24.937 1.3948 26.2158 1.16527C27.0601 1.00951 27.5438 1.00951 28.3963 1.15707ZM16.1246 8.3381C16.2476 8.38728 16.9444 9.0021 17.6658 9.71528C19.0593 11.0843 19.4118 11.3302 20.1496 11.4204C20.5513 11.4614 20.5759 11.4777 20.871 11.9614C21.5514 13.0681 23.0843 14.3633 24.2484 14.8141L24.7402 15.0027L24.773 15.6667C24.8304 16.7324 25.0271 17.0603 26.5109 18.5686C27.2077 19.2736 27.8143 19.954 27.8635 20.0769C27.9782 20.3721 27.9782 20.7983 27.8635 21.0852C27.8225 21.2164 27.1913 21.9132 26.4781 22.6346C24.732 24.397 24.814 24.2085 24.7566 26.7825L24.7156 28.7991L24.4861 29.0942C24.0598 29.6599 23.9614 29.6762 21.7235 29.7254C19.8135 29.7664 19.6987 29.7746 19.3462 29.9632C19.1413 30.0697 18.3953 30.7255 17.6658 31.4469C15.682 33.4061 15.6328 33.4061 13.649 31.4469C12.9276 30.7419 12.1734 30.0697 11.9685 29.9632C11.616 29.7746 11.5094 29.7664 9.59119 29.7254C7.44344 29.6762 7.31228 29.6517 6.9188 29.2172C6.53352 28.7991 6.51712 28.7089 6.47613 26.6104C6.43515 24.7003 6.42695 24.5856 6.23841 24.2331C6.13184 24.0282 5.46784 23.2822 4.75465 22.5526C3.31189 21.0934 3.20532 20.9131 3.37747 20.2245C3.45945 19.8966 3.64799 19.6671 4.83663 18.4538C6.54991 16.7078 6.47613 16.8881 6.47613 14.4862C6.48433 12.6418 6.53352 12.2729 6.86142 11.9204C7.22211 11.5187 7.37786 11.4859 9.50922 11.445C11.411 11.404 11.534 11.3876 11.8865 11.2072C12.0914 11.1007 12.8128 10.4695 13.526 9.75627C14.231 9.06768 14.9278 8.44467 15.0835 8.37909C15.4278 8.23153 15.8049 8.21514 16.1246 8.3381Z" fill="black"/>
<path d="M26.9451 1.34564C26.7402 1.57517 26.7484 2.68183 26.9533 2.86218C27.1582 3.04252 27.5681 3.03433 27.7321 2.85398C27.937 2.62445 27.9288 1.51778 27.7239 1.33744C27.5189 1.15709 27.109 1.16529 26.9451 1.34564Z" fill="black"/>
<path d="M26.445 3.91966C26.3303 4.07542 26.3139 4.4771 26.3139 6.66583C26.3139 9.12509 26.3221 9.23986 26.4778 9.39561C26.8385 9.7563 26.9943 9.65793 28.5436 8.1086C29.806 6.84618 30.0028 6.61665 30.0028 6.39532C30.0028 6.25596 29.9372 6.08381 29.8552 6.01003C29.5437 5.72312 29.3552 5.82969 28.3469 6.82978L27.3796 7.79709V5.89527C27.3796 3.78031 27.3714 3.73932 26.8467 3.73932C26.65 3.73932 26.527 3.7967 26.445 3.91966Z" fill="black"/>
<path d="M20.9612 7.32981C20.7809 7.53475 20.7891 7.94462 20.9694 8.10857C21.1989 8.31351 22.3056 8.30531 22.4859 8.10038C22.6663 7.89544 22.6581 7.48556 22.4777 7.32161C22.2482 7.11667 21.1415 7.12487 20.9612 7.32981Z" fill="black"/>
<path d="M32.1917 7.32981C32.0113 7.53475 32.0195 7.94462 32.1999 8.10857C32.4294 8.31351 33.5361 8.30531 33.7164 8.10038C33.8968 7.89544 33.8886 7.48556 33.7082 7.32161C33.4787 7.11667 32.372 7.12487 32.1917 7.32981Z" fill="black"/>
<path d="M26.9451 12.5762C26.7402 12.8058 26.7484 13.9124 26.9533 14.0928C27.1582 14.2731 27.5681 14.2649 27.7321 14.0846C27.937 13.855 27.9288 12.7484 27.7239 12.568C27.5189 12.3877 27.109 12.3959 26.9451 12.5762Z" fill="black"/>
<path d="M11.2553 14.0764C11.1159 14.1173 10.8208 14.3469 10.5995 14.5928C8.37798 17.0193 8.00089 20.5852 9.64859 23.4543C10.165 24.3479 11.4439 25.6103 12.321 26.1103C15.7557 28.0449 20.1168 27.0448 22.24 23.8478C22.7564 23.069 22.781 22.6018 22.3466 22.1181C22.0924 21.8476 22.0268 21.8148 21.6662 21.823C21.453 21.823 20.9776 21.905 20.6169 22.0116C19.8463 22.2329 18.5921 22.2739 17.8297 22.1099C17.2067 21.9706 17.1657 21.946 17.3707 21.8066C17.4608 21.741 17.6412 21.4541 17.7805 21.159L18.0347 20.6262L18.6249 20.6754C19.3872 20.7327 19.7151 20.577 19.9857 20.0278C20.2808 19.4539 20.1906 19.0687 19.625 18.503L19.1823 18.0604L19.3872 17.5439C19.6332 16.9291 19.6414 16.7569 19.4282 16.3225C19.1003 15.6421 18.3462 15.4863 17.5346 15.9372L17.0919 16.1913L16.805 15.9454C15.9607 15.2158 15.3541 15.183 14.7556 15.8306C14.5835 16.011 14.5507 16.1257 14.5507 16.552C14.5507 16.8307 14.5671 17.1832 14.5917 17.339C14.6327 17.6095 14.6163 17.6341 14.1572 17.9046C13.7965 18.1095 13.6408 18.2653 13.526 18.5112L13.3867 18.8309L13.1653 18.3145C12.8046 17.4291 12.6899 16.8799 12.6735 15.7814C12.6571 14.9617 12.6243 14.6994 12.5177 14.5272C12.2472 14.1173 11.739 13.937 11.2553 14.0764ZM11.5832 15.5191C11.5176 16.1093 11.698 17.38 11.9767 18.1997C12.7882 20.6262 14.7147 22.4214 17.2067 23.0608C17.8215 23.2166 18.2068 23.2576 18.9774 23.2576C19.8627 23.2576 20.1906 23.2166 21.3874 22.9461L21.5842 22.8969L21.3956 23.1756C20.4939 24.4708 19.3299 25.3234 17.7887 25.807C17.2723 25.9628 17.0018 25.9956 16.0673 25.9956C14.7966 25.9956 14.19 25.848 13.1161 25.2906C9.87812 23.6101 8.71408 19.4949 10.6077 16.3799C10.8618 15.9618 11.5176 15.1338 11.5996 15.1338C11.616 15.1338 11.616 15.306 11.5832 15.5191ZM16.0836 16.7733C16.7313 17.339 17.1001 17.3964 17.8379 17.0193C18.2724 16.7979 18.5265 16.716 18.5265 16.8061C18.5265 16.8225 18.4363 17.0439 18.3216 17.298C18.1002 17.798 18.0592 18.2325 18.2068 18.5194C18.256 18.6178 18.4855 18.8965 18.7151 19.126C18.9446 19.3638 19.1003 19.5687 19.0593 19.5769C19.0102 19.5851 18.6741 19.5933 18.3052 19.5933C17.469 19.6015 17.2805 19.7245 16.9034 20.5032C16.7476 20.8229 16.6001 21.0279 16.5591 20.9869C16.5263 20.9459 16.4361 20.6754 16.3624 20.3803C16.1574 19.5687 15.7312 19.2326 14.9114 19.2326C14.7475 19.2326 14.5671 19.1834 14.5179 19.1178C14.4441 19.0277 14.5179 18.9539 14.8868 18.7326C15.682 18.2571 15.8213 17.9046 15.6246 16.8307C15.5836 16.593 15.5836 16.4454 15.6328 16.4454C15.682 16.4454 15.8869 16.593 16.0836 16.7733ZM15.2147 20.413C15.3213 20.5196 15.436 21.0361 15.3459 21.0361C15.3131 21.0361 15.0835 20.8557 14.8376 20.6344L14.3868 20.2327L14.7556 20.2737C14.9606 20.2983 15.1655 20.3639 15.2147 20.413Z" fill="black"/>
<path d="M0.13116 7.77247C0.0409876 7.89543 0 8.14136 0 8.47746C0 8.92012 0.0327901 9.01849 0.213136 9.19884C0.368888 9.36279 0.467259 9.39558 0.639407 9.35459C0.983702 9.27262 1.06568 9.09227 1.06568 8.45287C1.06568 7.98561 1.03289 7.83805 0.918122 7.73148C0.696789 7.52655 0.278716 7.55114 0.13116 7.77247Z" fill="black"/>
</svg>
