<svg width="139" height="85" viewBox="0 0 139 85" fill="none" xmlns="http://www.w3.org/2000/svg">
<path d="M117.453 20.2516L114.146 23.568L117.453 26.8844L120.759 23.568L117.453 20.2516Z" fill="#239371"/>
<path d="M70.9035 77.9645C70.6119 78.2178 70.3141 78.469 70.0142 78.7161C73.7066 72.6613 76.9665 66.1266 76.2176 55.1423C76.0058 49.8472 73.2239 48.014 69.1704 47.8874C64.7228 47.9269 60.3447 54.3703 55.9975 63.7823C50.9103 76.218 44.6266 81.3305 37.8399 83.3401C32.8133 84.8308 27.4385 84.5048 22.5481 82.6567H22.546C22.271 82.5552 21.9986 82.445 21.7277 82.3327C16.3612 80.0966 11.477 76.5912 7.42617 70.8896C6.96883 70.2457 6.52183 69.5752 6.08572 68.8734C0.649889 60.1272 -1.2463 49.6227 0.809422 39.556C2.23999 32.5482 5.41861 26.0735 10.8104 20.2699C15.489 15.1492 21.3988 11.8498 29.1674 11.3018C33.0696 11.0275 36.9926 11.8585 40.3473 13.8496C45.1538 16.7045 47.4742 20.9425 47.3924 26.52C47.3779 27.5269 47.2831 28.5757 47.1132 29.6702C46.9998 28.931 46.8719 28.2082 46.7273 27.5084C45.158 19.8752 41.667 14.595 34.553 13.7522C26.4172 12.4793 19.0872 15.6731 12.3425 22.0893C6.50164 27.8785 3.36755 34.872 2.60202 42.9199C1.99758 49.2905 3.06559 55.7047 5.49735 61.6349C5.69675 62.1229 5.90031 62.6002 6.10593 63.0677C8.38437 68.2526 12.1291 72.0399 16.5285 74.3863H16.5306C23.1096 77.8974 31.1553 78.1839 37.9756 75.0942C42.1881 73.1883 45.9328 69.9925 48.5743 65.472C48.7297 65.2039 48.8872 64.9322 49.042 64.6579C49.9505 63.0487 50.7601 61.3832 51.4738 59.6807C55.0067 51.2626 59.3937 44.7034 65.7334 42.3924C67.6321 41.6988 69.6858 41.4789 71.6871 41.7736C74.8823 42.2448 77.385 43.8396 79.1476 46.6345C80.2762 48.4267 80.8889 50.4885 81.0376 52.594C81.8725 64.2991 77.643 72.0979 70.9045 77.964L70.9035 77.9645Z" fill="#239371"/>
<path d="M114.3 51.7163C114.305 51.7101 114.311 51.706 114.317 51.7019C114.471 51.5769 114.555 51.5058 114.555 51.5058C117.746 48.7521 118.642 44.3103 118.696 39.2511C118.792 34.7465 120.379 31.6259 122.802 29.2812C121.738 29.2689 120.717 29.2997 119.74 29.3728C115.646 29.677 112.021 31.5384 109.417 34.3529C106.813 37.1648 105.234 40.9272 105.234 45.0339C105.211 49.3861 103.609 51.0957 100.824 50.8183C97.5845 50.5641 96.2904 47.8206 95.8028 44.0458V35.9019C96.0821 33.2464 95.434 31.6099 94.2341 30.5822C93.9363 30.3259 93.603 30.1093 93.2425 29.9214C91.4634 29.0002 88.9925 28.8376 86.5237 28.6729C88.884 29.519 89.7506 31.4746 89.6426 34.1532V44.861C89.6426 45.7781 89.7553 46.6972 90.0258 47.5751C90.7237 49.8137 92.2344 51.6191 94.7716 52.8778C96.5214 53.7429 98.4568 54.1659 100.407 54.1932L106.916 54.2848C109.601 54.3224 112.217 53.4156 114.301 51.7168L114.3 51.7163ZM110.544 43.6743C110.857 38.2753 113.065 34.9653 116.494 32.9994C114.705 36.4556 113.536 39.9865 113.382 43.6388C113.322 45.1085 112.99 46.5696 112.295 47.8659C111.305 49.7047 109.888 50.8904 108.094 51.5053C109.536 48.7603 110.48 46.1213 110.544 43.6738V43.6743Z" fill="#239371"/>
<path d="M123.929 54.5257L111.958 54.3569C112.007 54.3389 113.267 53.7409 114.39 53.0369C115.765 52.1749 117.36 51.7308 118.983 51.7308C124.259 51.7308 128.66 47.6889 129.101 42.4284C129.105 42.3831 129.109 42.3399 129.112 42.2941V35.2299C129.112 34.3149 129.302 33.404 129.721 32.5909C131.05 30.0229 133.981 28.9221 139 29.7373C137.836 30.6065 136.763 31.6177 136.096 33.264C135.75 34.1208 135.586 35.0441 135.575 35.9673C135.475 44.647 133.471 50.9007 128.565 53.4666C127.139 54.2128 125.538 54.5484 123.929 54.5257H123.929Z" fill="#239371"/>
<path d="M111.296 62.4932L106.778 57.9732L102.261 62.4932L106.778 67.0131L111.296 62.4932Z" fill="#239371"/>
<path d="M102.912 62.4932L98.3947 57.9732L93.8773 62.4932L98.3947 67.0131L102.912 62.4932Z" fill="#239371"/>
<path d="M82.9713 3.61421L79.3591 0L75.7469 3.61421L79.3591 7.22842L82.9713 3.61421Z" fill="#239371"/>
<path d="M76.2641 3.6142L72.6519 0L69.0397 3.61421L72.6519 7.22841L76.2641 3.6142Z" fill="#239371"/>
<path d="M88.5699 47.526C88.8219 46.978 86.243 32.7012 85.0261 26.1727C84.9222 25.6081 84.826 25.1017 84.7447 24.6679C84.576 23.774 84.3868 22.8899 84.1635 22.0248C83.6327 19.9236 82.924 17.9222 81.9221 16.086C81.8742 15.9918 81.8223 15.9007 81.7724 15.8086L81.7698 15.8066C81.6407 15.575 81.5054 15.346 81.3635 15.1206C81.3553 15.1062 81.345 15.0912 81.3367 15.0748C80.9222 14.416 80.4634 13.7805 79.9578 13.1737C79.8765 13.0755 79.7953 12.9818 79.712 12.8902C76.916 9.78442 73.0328 9.47617 69.7513 12.3292C65.6721 15.8771 63.4054 20.3919 63.6076 25.956C63.643 26.8875 63.766 27.7464 63.9804 28.5343C64.4989 30.4312 65.5384 31.8922 67.105 32.9076C67.6554 33.2642 68.268 33.5642 68.9469 33.8102C68.9515 33.8118 68.9561 33.8133 68.9608 33.8149C69.1753 33.8818 69.3872 33.9518 69.5996 34.0248C69.6078 34.0269 69.616 34.0295 69.6227 34.0315C73.8495 35.4596 77.5142 37.3246 80.3081 39.8741C80.3955 39.9513 80.4829 40.0326 80.5704 40.1159C86.5249 45.7501 88.3039 54.6428 82.6997 69.305C82.6848 69.3405 82.6725 69.3781 82.6581 69.4136C87.5309 61.3551 89.4165 54.0824 88.5704 47.5265L88.5699 47.526ZM70.5326 26.8129C69.6099 26.4917 68.7201 25.9998 67.9619 25.4013C66.5074 24.2552 66.4678 22.4231 67.6472 20.7717C69.2575 18.512 71.6137 17.4534 73.8305 17.7179C75.0906 17.862 76.3055 18.4373 77.3115 19.4589C78.441 20.6075 79.5304 22.5394 80.1929 24.4487C80.4968 25.3225 80.7118 26.1933 80.7972 26.9796C78.1905 27.4716 75.6513 27.7191 73.1804 27.4026C72.4634 27.311 71.7531 27.171 71.049 26.9775C70.8762 26.9297 70.7013 26.8757 70.5326 26.8129Z" fill="#239371"/>
</svg>
