<svg width="40" height="41" viewBox="0 0 40 41" fill="none" xmlns="http://www.w3.org/2000/svg">
<path d="M20.2243 13.4924V13.6446H20.2155V13.502C20.2155 13.502 20.2216 13.4959 20.2243 13.4924Z" fill="black"/>
<path d="M20.2243 13.4924V13.6446H20.2155V13.502C20.2155 13.502 20.2216 13.4959 20.2243 13.4924Z" fill="black"/>
<path d="M39.9835 32.5149V14.8814C39.9835 14.051 39.75 13.2318 39.2785 12.5486C38.7304 11.7574 37.9688 11.272 36.8638 11.2728C36.3671 9.96134 35.2987 9.12215 33.521 8.86769C32.9842 8.79014 32.4395 8.78229 31.8993 8.82325C26.8981 9.20407 22.8852 10.6315 20.2247 13.4924V13.644H20.216V13.502C20.216 13.502 20.2221 13.4959 20.2247 13.4924V13.4105C17.5633 10.5435 13.5478 9.11257 8.54141 8.73175C8.00112 8.69079 7.45561 8.69863 6.91881 8.77619C5.20209 9.02194 4.14591 9.81407 3.62915 11.0506C2.54771 11.1003 1.23272 11.5395 0.719443 12.2828C0.247127 12.9652 0.0135827 13.7852 0.0135827 14.6148V32.2491C-0.100575 34.12 0.502456 35.3365 2.19652 35.5561C3.45051 35.7296 4.9729 35.7932 6.63298 35.8019C9.08344 35.8141 11.5226 36.2089 13.8319 37.0297C14.2981 37.1953 14.7547 37.3748 15.2018 37.57C15.7752 37.8201 16.2457 38.2585 16.5368 38.8127C16.786 39.2867 17.1355 39.617 17.579 39.8122C17.9468 40.3673 18.5768 40.7325 19.2923 40.7325H20.7537C21.2992 40.7325 21.7941 40.5198 22.1619 40.173C22.7283 40.0013 23.1649 39.6414 23.4603 39.0785C23.7522 38.5251 24.2228 38.0859 24.7962 37.8358C25.2424 37.6415 25.699 37.4611 26.1652 37.2955C28.4754 36.4755 30.9145 36.0799 33.365 36.0677C35.0251 36.0598 36.5475 35.9953 37.8015 35.8228C39.4947 35.6023 40.0977 34.3867 39.9835 32.5149ZM20.8164 15.7023C20.8164 14.8457 21.185 14.0327 21.8246 13.4628C23.6512 11.8358 26.6402 10.5652 31.9481 10.0084C32.6121 9.93868 33.2857 9.97441 33.9306 10.1478C35.0887 10.4607 35.9514 11.1578 35.9462 12.9852V28.2867C35.9462 28.5786 35.9087 28.8705 35.8198 29.1476C35.6447 29.6914 35.3118 30.1297 34.68 30.3703C34.4308 30.4653 34.165 30.5088 33.8983 30.5193C30.403 30.6474 27.8645 31.2609 25.9674 32.1985C24.7282 32.7841 22.8494 34.2002 20.8164 34.9836V15.7023ZM4.49448 12.8937C4.48925 11.0663 5.35197 10.3692 6.5101 10.0563C7.15409 9.88291 7.82858 9.84718 8.49261 9.9169C13.7927 10.4729 16.7808 11.7408 18.6073 13.3634C19.2591 13.942 19.6321 14.7716 19.6321 15.6431V34.8956C17.5956 34.1122 15.7142 32.6935 14.4732 32.107C12.5761 31.1694 10.0377 30.5559 6.54235 30.4278C6.27569 30.4173 6.0099 30.3737 5.76067 30.2788C5.12888 30.0382 4.796 29.5999 4.62084 29.0561C4.53108 28.779 4.49448 28.4871 4.49448 28.1952V12.8937ZM16.5603 37.0454C16.5603 37.0454 16.5534 37.0411 16.5499 37.0393C15.7115 36.6289 14.7922 36.2646 13.8014 35.9405C11.3256 35.1283 8.74184 34.6891 6.13713 34.595C5.23869 34.5618 4.32107 34.5 3.38689 34.4128C2.64443 34.4006 2.09892 34.1331 1.70155 33.6721C1.32596 33.2355 1.13773 32.6674 1.13773 32.0913V14.207C1.13773 13.6614 1.36866 13.1316 1.79479 12.79C2.09456 12.5504 2.79606 12.4214 3.29627 12.4214C3.27971 12.5974 3.27274 12.7752 3.27274 12.9521V28.4435C3.26315 30.0653 3.92021 30.8888 4.87617 31.3541C5.3755 31.5972 5.92886 31.7105 6.48483 31.7166C9.22636 31.748 11.7291 32.2412 14.0314 33.1214C15.6244 33.7976 17.044 34.6237 18.2919 35.5997C17.6636 35.9509 17.2383 36.6228 17.2383 37.3931V37.6328C17.0649 37.3879 16.834 37.184 16.5603 37.0454ZM20.7406 40.2915H19.3045C18.4557 40.2915 17.7673 39.6031 17.7673 38.7543V37.3182C17.7673 36.4694 18.4557 35.781 19.3045 35.781H20.7406C21.5902 35.781 22.2778 36.4694 22.2778 37.3182V38.7543C22.2778 39.6031 21.5902 40.2915 20.7406 40.2915ZM38.8594 32.3571C38.8594 32.934 38.672 33.5022 38.2956 33.9388C37.8991 34.3998 37.3527 34.6673 36.6102 34.6786C35.6769 34.7666 34.7593 34.8285 33.86 34.8607C31.2553 34.9557 28.6723 35.3949 26.1957 36.2062C25.2058 36.5313 24.2856 36.8955 23.4481 37.306C23.4438 37.3077 23.4403 37.3095 23.4368 37.3112C23.1876 37.4384 22.9749 37.618 22.8076 37.8341V37.3931C22.8076 36.7422 22.5044 36.1609 22.0303 35.7862C23.3069 34.7675 24.7657 33.91 26.4084 33.2129C28.7107 32.3327 31.2134 31.8395 33.9558 31.8081C34.5118 31.802 35.0643 31.6887 35.5636 31.4456C36.5196 30.9803 37.1775 30.1576 37.1679 28.5359V13.0436C37.1679 12.9442 37.1653 12.844 37.161 12.7447C37.5261 12.7046 37.8755 12.7944 38.2032 13.0567C38.6285 13.3983 38.8594 13.9281 38.8594 14.4736V32.3571Z" fill="black"/>
<path d="M25.2544 4.84864C25.2544 7.52655 23.0837 9.69816 20.4058 9.69816C17.7279 9.69816 15.5563 7.52655 15.5563 4.84864C15.5563 2.17074 17.727 0 20.4058 0C20.6838 0 20.9565 0.0235284 21.2223 0.0688428C21.1256 0.0627428 21.0289 0.0592574 20.9304 0.0592574C18.5427 0.0592574 16.6064 1.99558 16.6064 4.3833C16.6064 6.77102 18.5427 8.70734 20.9304 8.70734C23.3181 8.70734 25.129 6.89477 25.2492 4.61249C25.2527 4.69092 25.2544 4.76934 25.2544 4.84864Z" fill="black"/>
<path d="M21.0608 1.77764L21.398 2.81465H22.4882C22.8402 2.81465 22.9866 3.26518 22.7017 3.47258L21.8198 4.11308L22.157 5.15008C22.266 5.48471 21.8825 5.76357 21.5976 5.55617L20.7157 4.91567L19.8338 5.55617C19.5488 5.76357 19.1654 5.48471 19.2743 5.15008L19.6116 4.11308L18.7297 3.47258C18.4447 3.26518 18.5911 2.81465 18.9432 2.81465H20.0334L20.3706 1.77764C20.4795 1.44301 20.9536 1.44301 21.0617 1.77764H21.0608Z" fill="black"/>
<path d="M6.63598 14.9779L7.52327 16.4316L6.76235 16.3396L6.02092 15.0677L5.88012 16.233L5.25152 16.157L5.56557 13.5581L6.19416 13.6341L6.05601 14.7773L7.08374 13.7416L7.83732 13.8326L6.63598 14.9779Z" fill="black"/>
<path d="M10.842 16.8926L10.2134 16.8166L9.35489 15.0942L9.16211 16.6896L8.53352 16.6137L8.84756 14.0147L9.47616 14.0907L10.3329 15.8278L10.5275 14.2177L11.1561 14.2937L10.842 16.8926Z" fill="black"/>
<path d="M13.0962 14.6263C13.3413 14.6559 13.5561 14.7403 13.7407 14.8795C13.928 15.0165 14.067 15.1936 14.1576 15.411C14.2485 15.6258 14.2786 15.8607 14.2478 16.1156C14.217 16.3704 14.1305 16.5925 13.9882 16.7817C13.8485 16.9711 13.6712 17.1113 13.4563 17.2022C13.2442 17.291 13.0168 17.3207 12.7742 17.2914C12.5316 17.2621 12.3166 17.1789 12.1293 17.0419C11.9447 16.9027 11.8059 16.7243 11.7128 16.5067C11.6222 16.2894 11.5923 16.0533 11.6231 15.7984C11.6539 15.5436 11.739 15.3226 11.8785 15.1356C12.0207 14.9464 12.1979 14.8074 12.41 14.7187C12.6249 14.6278 12.8536 14.597 13.0962 14.6263ZM13.0256 15.2108C12.8197 15.1859 12.6474 15.2335 12.5086 15.3534C12.3725 15.4713 12.2906 15.6454 12.2627 15.8757C12.2352 16.1036 12.2733 16.2922 12.3771 16.4415C12.4834 16.5911 12.6394 16.6783 12.8453 16.7032C13.0487 16.7278 13.2198 16.6801 13.3586 16.5601C13.4974 16.4401 13.5806 16.2662 13.6081 16.0383C13.6357 15.8104 13.5963 15.6216 13.4901 15.472C13.3863 15.3227 13.2315 15.2357 13.0256 15.2108Z" fill="black"/>
<path d="M12.9258 18.4305L11.9661 21.0203L11.1664 20.9237L10.9558 19.088L10.3102 20.8202L9.51049 20.7236L9.19527 17.9798L9.89686 18.0645L10.0067 20.0373L10.7078 18.1625L11.4132 18.2478L11.6476 20.2355L12.228 18.3462L12.9258 18.4305Z" fill="black"/>
<path d="M14.1391 20.8523L14.9991 20.9562L14.9394 21.4504L13.4344 21.2685L13.7566 18.6017L14.4016 18.6796L14.1391 20.8523Z" fill="black"/>
<path d="M12.4654 22.8858L12.398 23.4441L13.2995 23.553L13.2407 24.0396L12.3392 23.9307L12.2676 24.5229L13.2823 24.6455L13.2198 25.1622L11.5601 24.9617L11.8824 22.2949L13.5421 22.4954L13.4801 23.0084L12.4654 22.8858Z" fill="black"/>
<path d="M16.9138 24.2497C16.8822 24.5113 16.7975 24.737 16.6597 24.927C16.5248 25.1148 16.3448 25.2526 16.1199 25.3402C15.8975 25.4281 15.6443 25.4549 15.3601 25.4206L14.353 25.2989L14.6752 22.6321L15.6824 22.7538C15.969 22.7884 16.21 22.8737 16.4054 23.0096C16.6007 23.1454 16.7416 23.3206 16.8279 23.5352C16.9168 23.75 16.9454 23.9882 16.9138 24.2497ZM15.3733 24.8367C15.6247 24.867 15.8277 24.8239 15.9821 24.7074C16.139 24.5911 16.2321 24.4123 16.2612 24.1709C16.2904 23.9295 16.2426 23.7336 16.1179 23.5833C15.9957 23.4333 15.8089 23.3431 15.5574 23.3128L15.2519 23.2758L15.0677 24.7997L15.3733 24.8367Z" fill="black"/>
<path d="M15.7408 26.7729C16.0752 26.8133 16.3407 26.9283 16.5372 27.1179C16.7337 27.3075 16.8415 27.5451 16.8606 27.8306L16.1779 27.7481C16.1441 27.647 16.0841 27.5632 15.9977 27.4967C15.9117 27.4276 15.8033 27.3852 15.6725 27.3694C15.4688 27.3447 15.297 27.3941 15.1571 27.5176C15.0175 27.6385 14.9335 27.8158 14.9053 28.0497C14.8746 28.3037 14.9151 28.5063 15.027 28.6576C15.1413 28.8092 15.318 28.8994 15.5569 28.9283C15.7103 28.9468 15.8498 28.9216 15.9755 28.8526C16.1015 28.7811 16.1978 28.6703 16.2644 28.5201L15.4497 28.4217L15.5058 27.9577L16.8599 28.1213L16.7829 28.7588C16.7137 28.9086 16.6158 29.0435 16.489 29.1634C16.3623 29.2833 16.2072 29.3743 16.0236 29.4363C15.8426 29.4986 15.6414 29.5164 15.4201 29.4897C15.1511 29.4572 14.9228 29.3722 14.7353 29.2347C14.5481 29.0947 14.4116 28.9149 14.3259 28.6954C14.2427 28.4761 14.217 28.2344 14.2489 27.9704C14.2808 27.7064 14.3633 27.4778 14.4964 27.2846C14.6319 27.0918 14.8059 26.9508 15.0182 26.8617C15.2334 26.7703 15.4742 26.7407 15.7408 26.7729Z" fill="black"/>
<path d="M18.1984 27.7221L18.131 28.2803L19.0325 28.3893L18.9737 28.8759L18.0722 28.7669L18.0006 29.3591L19.0153 29.4817L18.9528 29.9985L17.2932 29.798L17.6154 27.1312L19.2751 27.3317L19.2131 27.8447L18.1984 27.7221Z" fill="black"/>
<path d="M27.9181 23.284C27.9181 23.3978 27.8964 23.5032 27.8529 23.6003C27.8127 23.694 27.7022 23.7409 27.5215 23.7409H27.2504C26.8253 23.7409 26.4721 23.7141 26.1909 23.6606C25.9131 23.607 25.6202 23.52 25.3123 23.3995C25.319 23.4798 25.3257 23.5752 25.3324 23.6857C25.3391 23.7961 25.3424 23.9049 25.3424 24.012C25.3424 24.0522 25.334 24.1208 25.3173 24.2179C25.3006 24.3183 25.2721 24.4238 25.2319 24.5342C25.1951 24.6447 25.1466 24.7384 25.0863 24.8154C25.0294 24.8957 24.9575 24.9359 24.8704 24.9359C24.7466 24.9359 24.6278 24.874 24.5139 24.7501C24.4001 24.6296 24.298 24.4756 24.2077 24.2882C24.1173 24.1041 24.0453 23.9116 23.9918 23.7108C23.9382 23.5099 23.9098 23.3309 23.9064 23.1735C23.5181 23.274 23.2102 23.3945 22.9826 23.535C22.7549 23.6723 22.6411 23.8798 22.6411 24.1576C22.6411 24.2781 22.6629 24.4773 22.7064 24.7551C22.7499 25.033 22.8035 25.3476 22.8671 25.6991C22.9307 26.0539 22.9943 26.407 23.0579 26.7585C23.1215 27.11 23.175 27.4213 23.2185 27.6924C23.2621 27.9635 23.2838 28.1526 23.2838 28.2598C23.2838 28.3535 23.2671 28.4556 23.2336 28.566C23.2001 28.6798 23.1616 28.7769 23.1181 28.8572C23.0746 28.9376 23.0378 28.9777 23.0077 28.9777C22.9608 28.9777 22.929 28.8673 22.9123 28.6464C22.8989 28.4288 22.8688 28.1593 22.8219 27.838C22.7583 27.3995 22.6897 26.961 22.616 26.5225C22.5424 26.0874 22.4805 25.6907 22.4303 25.3325C22.38 24.9744 22.3549 24.6982 22.3549 24.5041C22.3549 24.0154 22.4403 23.5735 22.611 23.1786C22.7851 22.7836 23.1031 22.4589 23.565 22.2045C23.8127 22.0673 23.9851 21.9384 24.0821 21.8179C24.1826 21.6974 24.2562 21.6371 24.3031 21.6371C24.3432 21.6371 24.4152 21.6974 24.519 21.8179C24.6261 21.9384 24.7868 22.0773 25.001 22.2346C25.2186 22.3919 25.5081 22.5309 25.8696 22.6514C26.2345 22.7719 26.6947 22.8321 27.2504 22.8321H27.5215C27.7022 22.8321 27.8127 22.879 27.8529 22.9727C27.8964 23.0664 27.9181 23.1702 27.9181 23.284ZM30.8654 23.284C30.8654 23.3978 30.8437 23.5032 30.8002 23.6003C30.76 23.694 30.6479 23.7409 30.4638 23.7409H30.1826C29.8278 23.7409 29.5567 23.6053 29.3692 23.3342C29.1818 23.0631 29.0278 22.715 28.9073 22.2899C28.7968 22.715 28.6194 23.0631 28.3751 23.3342C28.134 23.6053 27.8813 23.7409 27.6169 23.7409H27.3508C27.1667 23.7409 27.0545 23.694 27.0144 23.6003C26.9709 23.5032 26.9491 23.3978 26.9491 23.284C26.9491 23.1702 26.9709 23.0664 27.0144 22.9727C27.0545 22.879 27.1667 22.8321 27.3508 22.8321H27.6169C27.7207 22.8321 27.8261 22.8221 27.9332 22.802C28.0403 22.7786 28.1173 22.7501 28.1642 22.7166C28.3215 22.6062 28.4604 22.4622 28.5809 22.2848C28.7048 22.1074 28.7667 21.8915 28.7667 21.6371C28.7667 21.0112 28.7399 20.4221 28.6864 19.8698C28.6361 19.3141 28.5843 18.7986 28.5307 18.3233C28.4805 17.848 28.4554 17.4162 28.4554 17.0279C28.4554 16.9241 28.4738 16.8137 28.5106 16.6965C28.5474 16.5794 28.5926 16.4789 28.6462 16.3953C28.7031 16.3116 28.7583 16.2697 28.8119 16.2697C28.8453 16.2697 28.8721 16.3032 28.8922 16.3702C28.9123 16.4371 28.9223 16.5844 28.9223 16.812C28.9223 17.0396 28.9307 17.3158 28.9474 17.6405C28.9675 17.9618 28.9926 18.3049 29.0228 18.6698C29.0529 19.0313 29.0847 19.3894 29.1182 19.7442C29.1516 20.099 29.1834 20.4254 29.2136 20.7233C29.247 21.0212 29.2738 21.2622 29.2939 21.4463C29.3407 21.8614 29.4445 22.1961 29.6052 22.4505C29.7659 22.7049 29.9583 22.8321 30.1826 22.8321H30.4638C30.6479 22.8321 30.76 22.879 30.8002 22.9727C30.8437 23.0664 30.8654 23.1702 30.8654 23.284ZM35.2588 21.2053C35.2588 21.2187 35.2454 21.2823 35.2186 21.3961C35.1918 21.5066 35.165 21.6187 35.1383 21.7325C35.1048 21.8731 35.0312 21.9652 34.9173 22.0087C34.6529 22.1124 34.3533 22.2396 34.0186 22.3903C33.6872 22.5376 33.3441 22.6899 32.9893 22.8472C32.7048 22.971 32.4236 23.1032 32.1458 23.2438C31.8713 23.3811 31.6002 23.4982 31.3324 23.5953C31.068 23.6924 30.8069 23.7409 30.5491 23.7409H30.283C30.0989 23.7409 29.9868 23.694 29.9466 23.6003C29.9031 23.5032 29.8813 23.3978 29.8813 23.284C29.8813 23.1702 29.9031 23.0664 29.9466 22.9727C29.9868 22.879 30.0989 22.8321 30.283 22.8321H30.5491C30.7366 22.8321 30.909 22.807 31.0663 22.7568C31.2236 22.7032 31.3993 22.6279 31.5935 22.5309C31.4663 22.4237 31.3391 22.3016 31.2119 22.1643C31.088 22.0271 31.0261 21.8714 31.0261 21.6974C31.0261 21.4396 31.0897 21.1802 31.2169 20.9191C31.3441 20.658 31.5081 20.4154 31.709 20.1911C31.9098 19.9668 32.119 19.7844 32.3366 19.6438C32.5073 19.53 32.6747 19.4597 32.8387 19.4329C33.006 19.4028 33.1516 19.3877 33.2755 19.3877C33.3324 19.3877 33.4244 19.4195 33.5516 19.4831C33.6788 19.5467 33.8127 19.6254 33.9533 19.7191C34.0939 19.8095 34.2144 19.8999 34.3148 19.9903C34.4152 20.0806 34.4655 20.1543 34.4655 20.2112C34.4655 20.258 34.442 20.2815 34.3952 20.2815C34.3751 20.2815 34.3215 20.2664 34.2345 20.2363C34.1508 20.2062 34.0521 20.176 33.9383 20.1459C33.8245 20.1158 33.7123 20.1007 33.6019 20.1007C33.4512 20.1007 33.2655 20.1308 33.0445 20.1911C32.8236 20.2514 32.6094 20.3233 32.4019 20.407C32.0772 20.5375 31.873 20.6296 31.7893 20.6832C31.7056 20.7367 31.6638 20.7869 31.6638 20.8338C31.6638 20.9476 31.709 21.0681 31.7993 21.1953C31.8897 21.3191 32.0052 21.4363 32.1458 21.5468C32.2897 21.6539 32.4403 21.7409 32.5977 21.8078C32.7583 21.8748 32.9056 21.9083 33.0395 21.9083C33.2203 21.9083 33.4244 21.8698 33.6521 21.7928C33.8797 21.7158 34.1023 21.6288 34.3199 21.5317C34.5408 21.4313 34.7316 21.3426 34.8922 21.2656C35.0563 21.1886 35.165 21.1501 35.2186 21.1501C35.2454 21.1501 35.2588 21.1685 35.2588 21.2053Z" fill="black"/>
</svg>
