<svg width="36" height="42" viewBox="0 0 36 42" fill="none" xmlns="http://www.w3.org/2000/svg">
<path d="M17.9714 0C18.1191 0.0886119 18.2262 0.215786 18.3271 0.354037C19.0713 1.37184 20.0324 2.1513 21.0716 2.84666C22.2014 3.60273 23.4194 4.20086 24.6095 4.84986C25.9715 5.5924 27.2941 6.39442 28.451 7.44135C28.9084 7.85528 29.315 8.31557 29.6731 8.81771C30.2511 9.62875 30.567 10.5161 30.4407 11.5261C30.4201 11.691 30.464 11.7534 30.6355 11.7973C33.3242 12.4836 34.9184 14.2128 35.4706 16.9171C35.5678 17.3926 35.5982 17.8787 35.5982 18.364C35.5986 22.8537 35.5949 27.3429 35.5945 31.8326C35.5945 35.0034 35.5961 38.1737 35.6003 41.3444C35.6003 41.5869 35.5908 41.8183 35.4025 42H0.17107C0.0315885 41.8441 0 41.6632 0 41.4564C0.00369216 33.6996 0.0020512 25.9424 0.00246144 18.1855C0.00246144 16.4982 0.500904 14.9857 1.63809 13.7201C2.5238 12.7343 3.62119 12.0869 4.92412 11.8104C5.09888 11.7735 5.16657 11.7259 5.144 11.5261C4.99386 10.2035 5.55219 9.13893 6.39524 8.18512C7.38392 7.06639 8.59618 6.23155 9.86628 5.47261C11.0658 4.75592 12.3261 4.14876 13.5351 3.44889C14.8425 2.69159 16.0494 1.80875 17.043 0.656795C17.2367 0.431983 17.3704 0.152199 17.6436 0.00041024H17.9718L17.9714 0ZM17.786 41.2439V41.2452C19.4881 41.2452 21.1897 41.2452 22.8918 41.2452C26.7944 41.2443 30.6971 41.2419 34.6001 41.2452C34.7666 41.2452 34.7982 41.1939 34.7982 41.0388C34.7941 33.6569 34.7937 26.2751 34.7941 18.8936C34.7941 18.3533 34.7798 17.8147 34.7092 17.2781C34.486 15.5752 33.6672 14.2448 32.2293 13.3004C31.5204 12.8348 30.7311 12.5948 29.8996 12.4734C29.6719 12.4401 29.5812 12.3335 29.5816 12.1025C29.5816 12.0213 29.5931 11.9392 29.6062 11.8588C29.7412 11.0363 29.6501 10.2531 29.1956 9.53645C28.9868 9.20744 28.7546 8.89565 28.49 8.60848C27.5924 7.63416 26.5188 6.88506 25.3931 6.20653C24.1964 5.48532 22.9341 4.88186 21.7198 4.19102C20.2975 3.38161 18.9978 2.41796 17.9382 1.1577C17.82 1.01699 17.7708 1.02601 17.66 1.1577C16.7456 2.24648 15.6396 3.1088 14.4351 3.85011C13.2914 4.55408 12.0795 5.13621 10.9095 5.79383C9.74075 6.45062 8.61382 7.16608 7.62104 8.07517C7.20095 8.45957 6.83502 8.88991 6.50723 9.35594C5.9973 10.0812 5.83772 10.8738 5.97843 11.7452C6.06787 12.2982 6.05064 12.4414 5.44471 12.5341C3.49812 12.8323 2.12463 13.9326 1.29513 15.711C0.879145 16.6028 0.790533 17.5599 0.790533 18.5281C0.789303 22.8135 0.791354 27.0993 0.792174 31.3846C0.792584 34.6038 0.794636 37.8229 0.789713 41.0425C0.789713 41.2078 0.835249 41.2505 0.993192 41.2468C1.40302 41.2378 1.81326 41.2443 2.2235 41.2443C7.41099 41.2443 12.5989 41.2443 17.7864 41.2443L17.786 41.2439Z" fill="black"/>
<path d="M1.93145 27.6678C2.05575 27.6022 2.18867 27.5894 2.32774 27.5899C3.10679 27.5919 3.88543 27.5817 4.66406 27.5944C4.85934 27.5977 4.88477 27.5304 4.88026 27.3614C4.86672 26.8494 4.86549 26.3366 4.86836 25.8242C4.87041 25.4217 4.99595 25.3028 5.40003 25.3024C6.34277 25.3007 7.28591 25.3007 8.22864 25.3007C8.56709 25.3007 8.69262 25.4279 8.69467 25.7725C8.69673 26.0662 8.70206 26.36 8.69549 26.6537C8.69262 26.7747 8.72093 26.8198 8.85303 26.8182C9.66571 26.8067 10.4784 26.8067 11.2915 26.7977C11.6004 26.7944 11.7752 26.956 11.776 27.2715C11.7776 28.03 11.7768 28.7882 11.7768 29.5467C11.7768 29.6337 11.7768 29.7211 11.7768 29.8314C12.1202 29.694 12.441 29.5656 12.7618 29.4376C12.825 29.4121 12.8877 29.3851 12.9526 29.3641C13.2176 29.2792 13.4059 29.3797 13.4974 29.6382C14.5377 32.573 15.5797 35.5075 16.6217 38.4415C16.6394 38.4908 16.664 38.5375 16.6985 38.6151C16.8613 38.2897 17.0984 38.0764 17.409 37.9501C17.4939 37.9156 17.4865 37.8795 17.45 37.8139C17.1789 37.3249 16.9048 36.8375 16.5971 36.3698C16.5249 36.2599 16.4154 36.1864 16.3055 36.1159C15.8673 35.8361 15.5941 35.4398 15.462 34.9377C15.3549 34.5291 15.3299 34.1147 15.364 33.6983C15.5227 31.7476 15.5367 29.7965 15.398 27.8442C15.3738 27.5037 15.3578 27.1628 15.3381 26.8219C15.3697 26.7439 15.3 26.6832 15.3036 26.6069C15.3283 26.1072 15.2409 25.6145 15.2056 25.1186C15.1912 24.9139 15.2105 24.7309 15.3976 24.6168C15.5838 24.5028 15.7648 24.5557 15.9317 24.6739C16.2542 24.902 16.5811 25.1239 16.8876 25.3746C17.4476 25.8324 17.971 26.33 18.4933 26.8293C18.8649 27.2736 19.2592 27.7002 19.5644 28.197C19.9886 28.8879 20.3406 29.6062 20.4485 30.423C20.5211 30.9748 20.4366 31.5109 20.2967 32.0426C20.2778 32.1148 20.2569 32.1866 20.2364 32.2604C20.309 32.3035 20.3652 32.2371 20.4312 32.2346C20.6696 32.2248 20.8546 32.3712 20.8505 32.6067C20.8214 34.2727 20.4862 35.8328 19.29 37.0951C19.0651 37.3322 18.8596 37.587 18.6356 37.8442C18.78 37.9058 18.9314 37.9164 19.0606 37.9919C19.4865 38.2401 19.7244 38.6151 19.7798 39.0967C19.8003 39.2776 19.8725 39.3203 20.0366 39.3096C20.2265 39.2973 20.4181 39.3067 20.6335 39.3067C20.5129 39.0856 20.3906 38.8899 20.3484 38.6602C20.2105 37.909 20.6335 37.2092 21.4097 36.9072C21.8035 36.7542 21.9815 36.44 21.9073 36.0203C21.8884 35.9136 21.8626 35.8119 21.7567 35.7438C21.5922 35.6375 21.5167 35.4796 21.5734 35.286C21.632 35.0866 21.7785 34.9816 21.9856 34.982C22.3918 34.9832 22.6646 34.7871 22.7991 34.4158C22.9395 34.0294 22.8476 33.6782 22.5776 33.3714C22.4283 33.2015 22.2342 33.1757 22.0197 33.1765C21.6804 33.1782 21.5188 32.8664 21.6931 32.5743C21.7776 32.4327 21.904 32.4007 22.0583 32.4007C23.9581 32.4003 25.8575 32.3962 27.7573 32.3934C28.9396 32.3917 30.1215 32.3909 31.3038 32.3897C32.192 32.3888 32.9538 33.0637 33.0191 33.9088C33.0888 34.8097 32.4808 35.5797 31.5816 35.7298C31.328 35.7721 31.1939 35.9231 31.1771 36.1848C31.1603 36.4457 31.335 36.7214 31.5717 36.792C31.8109 36.8633 32.0648 36.8674 32.304 36.8391C32.9908 36.7587 33.3485 37.1419 33.6053 37.6957C33.625 37.7384 33.6484 37.779 33.6701 37.8204C33.7587 38.3123 33.7649 38.7976 33.5454 39.262C33.5089 39.3396 33.5569 39.3437 33.6065 39.3761C33.7628 39.4794 33.8342 39.6267 33.7813 39.8158C33.7275 40.0082 33.595 40.0829 33.3985 40.0825C31.4778 40.0804 29.5574 40.0817 27.6367 40.0825C22.6539 40.0841 17.6711 40.0862 12.6884 40.087C9.37321 40.0874 6.05847 40.0858 2.74332 40.0854C2.57922 40.0854 2.41553 40.0923 2.25144 40.0948C1.96796 40.0985 1.81699 39.9533 1.81699 39.6743C1.8174 37.61 1.81986 35.5461 1.81904 33.4817C1.81863 31.6841 1.81658 29.8864 1.81043 28.0887C1.81002 27.932 1.83668 27.7921 1.93022 27.6666L1.93145 27.6678ZM5.66382 31.721H5.66136C5.66136 32.9435 5.66423 34.166 5.65766 35.3881C5.65684 35.5338 5.69705 35.5694 5.83817 35.5686C6.47322 35.5649 7.10827 35.5678 7.74333 35.5797C7.89594 35.5826 7.9185 35.5255 7.91809 35.391C7.9144 32.9599 7.9144 30.5284 7.91891 28.0973C7.91891 27.9492 7.88896 27.8971 7.72938 27.8996C7.10827 27.909 6.48635 27.9062 5.86525 27.8996C5.7192 27.8979 5.65725 27.9197 5.65889 28.0945C5.66874 29.303 5.66382 30.512 5.66382 31.721ZM23.3583 34.9713C23.4067 34.9754 23.4272 34.9787 23.4473 34.9787C26.0634 34.9795 28.6799 34.9807 31.296 34.9791C31.8285 34.9791 32.247 34.5787 32.2458 34.0844C32.2445 33.5556 31.8166 33.1576 31.2575 33.1585C28.7165 33.1617 26.1754 33.1634 23.634 33.1667C23.5556 33.1667 23.474 33.1498 23.3858 33.1929C23.7443 33.7824 23.7095 34.3695 23.3579 34.9713H23.3583ZM16.0761 25.7245C16.1208 26.4785 16.1656 27.1936 16.2033 27.909C16.2078 27.9948 16.2562 28.0235 16.3137 28.0612C16.5754 28.2339 16.8347 28.4099 17.096 28.5835C17.2937 28.7147 17.3495 28.9326 17.2334 29.1307C17.112 29.3379 16.8896 29.3904 16.6702 29.2587C16.5372 29.1791 16.4084 29.0926 16.2616 28.9986C16.2993 29.7621 16.2944 30.5042 16.2841 31.2467C16.2829 31.3431 16.319 31.3907 16.3994 31.4367C16.648 31.5786 16.8917 31.7292 17.135 31.8793C17.2925 31.9766 17.3852 32.1107 17.3434 32.306C17.2835 32.5845 17.023 32.7211 16.7637 32.5981C16.5951 32.5181 16.438 32.4147 16.2648 32.3158C16.2218 32.8898 16.1705 33.4395 16.1418 33.9904C16.1077 34.6497 16.2743 35.2203 16.8933 35.5785C17.1633 35.7348 17.3044 36.0092 17.4652 36.2619C17.5567 36.4055 17.6416 36.5528 17.7479 36.728C17.8098 33.8358 17.8574 30.9891 17.9444 28.1437C17.9608 27.6001 17.8385 27.2108 17.4033 26.8654C16.9577 26.5117 16.5536 26.1036 16.0761 25.7241V25.7245ZM8.69467 34.1221H8.69673C8.69673 35.0308 8.69672 35.9395 8.69631 36.8482C8.69631 36.9392 8.68114 37.016 8.82472 37.0147C9.49423 37.009 10.1637 37.0123 10.8333 37.0201C10.9805 37.0217 11.0072 36.9659 11.0068 36.8297C11.0019 35.0259 11.0019 33.222 11.0072 31.4182C11.0076 31.2668 10.9563 31.2426 10.8209 31.2439C10.1719 31.25 9.52254 31.2525 8.87395 31.2398C8.70698 31.2365 8.69139 31.2964 8.69221 31.4363C8.69796 32.3314 8.69508 33.2266 8.69508 34.1213L8.69467 34.1221ZM24.9948 37.6551V37.6526C23.9769 37.6526 22.9591 37.6526 21.9413 37.6535C21.8466 37.6535 21.7522 37.6498 21.6579 37.6801C21.2956 37.7958 21.0536 38.1285 21.0962 38.4616C21.1451 38.8419 21.5069 39.1586 21.9097 39.1627C22.3811 39.1677 22.8525 39.1631 23.3238 39.1636C24.8951 39.164 26.4659 39.166 28.0371 39.1648C28.5023 39.1648 28.8695 38.8165 28.8842 38.3972C28.897 38.0411 28.4851 37.6354 28.0482 37.6469C27.0312 37.674 26.013 37.6555 24.9952 37.6555L24.9948 37.6551ZM4.55248 33.8772H4.53114C4.53114 32.6678 4.52827 31.4584 4.53484 30.2494C4.53566 30.0886 4.48807 30.0419 4.33013 30.0451C3.82471 30.0554 3.31888 30.0607 2.81347 30.0484C2.64117 30.0443 2.61696 30.1067 2.61819 30.2548C2.62353 30.8902 2.61819 31.5257 2.61696 32.1612C2.61327 33.9309 2.61081 35.7007 2.60424 37.4701C2.60383 37.6174 2.61163 37.7043 2.80567 37.6986C3.31765 37.6834 3.83045 37.6871 4.34284 37.699C4.51391 37.7031 4.5574 37.6535 4.55658 37.4844C4.54919 36.282 4.55289 35.0792 4.55289 33.8768L4.55248 33.8772ZM13.3029 31.5876C13.2488 31.6061 13.2159 31.6155 13.1843 31.6279C12.8816 31.7497 12.5809 31.8777 12.2753 31.9926C12.1514 32.0393 12.1317 32.0906 12.1772 32.2178C12.4619 33.012 12.7339 33.8112 13.0145 34.607C13.4034 35.711 13.7985 36.8129 14.1837 37.9185C14.2317 38.0555 14.2793 38.0805 14.4134 38.0223C14.694 37.9 14.9808 37.7909 15.2696 37.6887C15.4333 37.6305 15.4776 37.5644 15.4115 37.3819C14.95 36.1089 14.5041 34.8306 14.0512 33.5543C13.835 32.9447 13.6163 32.3363 13.3952 31.7284C13.3755 31.6742 13.385 31.5803 13.3029 31.5881V31.5876ZM22.5973 36.7993H30.5527C30.3566 36.4543 30.3509 36.1175 30.483 35.7577C30.4149 35.7577 30.3615 35.7577 30.3078 35.7577C28.0465 35.7594 25.7849 35.761 23.5236 35.7623C23.2709 35.7623 23.0182 35.7598 22.7651 35.7623C22.715 35.7627 22.6195 35.7319 22.6638 35.8459C22.7881 36.1659 22.7118 36.474 22.5973 36.7993ZM29.3211 39.3145C30.0555 39.3145 30.7455 39.3149 31.4355 39.3145C31.7432 39.3145 32.0509 39.3063 32.3582 39.3125C32.519 39.3158 32.6248 39.2489 32.7179 39.1242C33.0047 38.7414 33.031 38.1868 32.7778 37.7966C32.7126 37.6961 32.6384 37.649 32.5116 37.6502C31.9377 37.6567 31.3633 37.6518 30.789 37.6518C30.3472 37.6518 29.9053 37.6518 29.4434 37.6518C29.7519 38.2249 29.7228 38.7623 29.3207 39.3145H29.3211ZM11.8174 33.6364C11.8055 33.6393 11.7936 33.6417 11.7813 33.6446C11.7813 33.6893 11.7813 33.734 11.7813 33.7787C11.7801 34.7145 11.7961 35.6507 11.7711 36.5856C11.7555 37.1558 11.8113 37.6969 12.0993 38.1987C12.1058 38.2102 12.1071 38.2245 12.1107 38.2376C12.1391 38.3349 12.1825 38.3595 12.2871 38.3123C12.5472 38.195 12.809 38.0752 13.081 37.9931C13.298 37.9275 13.3009 37.829 13.2348 37.6444C12.8722 36.6332 12.5206 35.6179 12.1641 34.6041C12.0504 34.2809 11.9331 33.9588 11.817 33.636L11.8174 33.6364ZM18.6028 33.4624C18.9601 33.1539 19.3133 32.9127 19.3634 32.441C19.3712 32.3679 19.406 32.2982 19.4294 32.2268C19.6465 31.5647 19.7818 30.8956 19.612 30.1986C19.4545 29.5516 19.1484 28.9777 18.7361 28.3886C18.691 30.1038 18.6475 31.7595 18.6028 33.462V33.4624ZM9.82981 37.8159C9.49546 37.8159 9.16071 37.8188 8.82636 37.8139C8.73242 37.8126 8.69385 37.8336 8.69549 37.9365C8.70124 38.3529 8.70124 38.7693 8.69755 39.1857C8.69672 39.271 8.71478 39.3067 8.8079 39.3067C9.4971 39.3059 10.1867 39.3084 10.8759 39.3137C10.9859 39.3145 11.0088 39.271 11.0072 39.1685C11.0006 38.766 10.999 38.3632 11.0047 37.9603C11.0064 37.8422 10.9682 37.8106 10.8538 37.8126C10.5124 37.8192 10.1711 37.8151 9.82981 37.8155V37.8159ZM6.81536 38.1117C6.48061 38.1117 6.14585 38.1154 5.81109 38.1097C5.69582 38.1076 5.65643 38.1433 5.65972 38.2614C5.66792 38.5687 5.66628 38.8764 5.663 39.1837C5.66218 39.2661 5.67736 39.3055 5.77253 39.3055C6.44204 39.3055 7.11156 39.3104 7.78107 39.3158C7.87214 39.3166 7.91481 39.2928 7.91358 39.189C7.90865 38.8748 7.91029 38.5601 7.91891 38.2463C7.92178 38.1355 7.88445 38.1072 7.77902 38.1092C7.4578 38.1154 7.13658 38.1113 6.81577 38.1117H6.81536ZM9.84089 28.7135V28.7164C10.1826 28.7164 10.5243 28.7123 10.8661 28.7188C10.9736 28.7209 11.0068 28.6909 11.0035 28.5818C10.9953 28.3016 10.9937 28.021 11.0023 27.7412C11.006 27.6235 10.9678 27.5915 10.855 27.5919C10.1785 27.5948 9.50162 27.5935 8.82513 27.5899C8.72831 27.5894 8.69508 27.619 8.69714 27.7179C8.70329 28.005 8.70411 28.2922 8.69714 28.5789C8.69467 28.6873 8.72913 28.7176 8.8358 28.7156C9.17055 28.7094 9.50572 28.7131 9.84048 28.7131L9.84089 28.7135ZM18.5938 36.6566C19.5845 35.7467 19.9328 34.5479 20.0362 33.2204C19.9037 33.3435 19.7966 33.4477 19.6842 33.5461C19.3396 33.8481 19.0155 34.1709 18.7004 34.5032C18.6496 34.5566 18.5917 34.6029 18.5921 34.6911C18.5942 35.3504 18.5934 36.01 18.5934 36.657L18.5938 36.6566ZM6.78664 27.1185C7.11402 27.1185 7.4418 27.1185 7.76917 27.1185C7.84466 27.1185 7.91768 27.1328 7.9144 27.0106C7.90701 26.7448 7.90947 26.4785 7.9144 26.2123C7.91604 26.1134 7.87871 26.0847 7.7823 26.0855C7.12715 26.0904 6.4724 26.0929 5.81725 26.0892C5.69582 26.0884 5.66997 26.1351 5.67243 26.2443C5.67777 26.4896 5.67736 26.7357 5.66874 26.9811C5.66505 27.0881 5.69582 27.1222 5.80453 27.1201C6.1319 27.1136 6.45968 27.1177 6.78706 27.1181L6.78664 27.1185ZM6.79198 37.3339V37.3359C7.11894 37.3359 7.44631 37.3314 7.77327 37.3384C7.89019 37.3409 7.92506 37.3027 7.92014 37.1874C7.9107 36.963 7.9107 36.7378 7.91604 36.513C7.9185 36.4072 7.88445 36.3719 7.77697 36.3727C7.11607 36.3768 6.45476 36.378 5.79386 36.3723C5.67653 36.3711 5.66177 36.4186 5.66382 36.5155C5.66874 36.7403 5.67202 36.9655 5.66218 37.1899C5.65684 37.3089 5.69623 37.3388 5.81027 37.3363C6.13724 37.3294 6.46461 37.3339 6.79157 37.3339H6.79198ZM9.82899 30.4382V30.4398C10.1769 30.4398 10.5248 30.4361 10.8726 30.4418C10.9768 30.4435 11.0158 30.4181 11.0105 30.3069C10.9998 30.089 10.9998 29.8704 11.0035 29.6521C11.0051 29.5565 10.9785 29.5241 10.878 29.525C10.1892 29.5307 9.49998 29.5319 8.81118 29.5299C8.72216 29.5299 8.69262 29.5561 8.69467 29.6456C8.70001 29.8568 8.7037 30.0689 8.69303 30.2798C8.68688 30.4025 8.71642 30.4451 8.84728 30.441C9.17424 30.4312 9.50203 30.4377 9.8294 30.4377L9.82899 30.4382ZM3.58062 38.4776V38.4797C3.3074 38.4797 3.03459 38.4834 2.76137 38.478C2.65388 38.476 2.59686 38.4949 2.60383 38.622C2.6145 38.8058 2.61245 38.9908 2.60507 39.1746C2.60055 39.2862 2.64527 39.3125 2.74824 39.3121C3.30124 39.3096 3.85425 39.3112 4.40725 39.3153C4.50612 39.3162 4.55699 39.2957 4.55084 39.1796C4.5414 38.9958 4.54427 38.8108 4.55166 38.627C4.55617 38.5117 4.51679 38.4723 4.39946 38.4756C4.12665 38.4834 3.85343 38.478 3.58021 38.478L3.58062 38.4776ZM3.58308 29.2497C3.58308 29.2497 3.58308 29.2534 3.58308 29.255C3.8563 29.255 4.12952 29.2513 4.40274 29.2567C4.50448 29.2587 4.55125 29.2349 4.54673 29.1213C4.53935 28.9235 4.5414 28.725 4.55001 28.5273C4.55494 28.4177 4.51473 28.387 4.4093 28.3874C3.85589 28.3906 3.30247 28.3915 2.74947 28.3845C2.6305 28.3829 2.61614 28.4345 2.61778 28.5301C2.62147 28.7213 2.62394 28.9129 2.61532 29.1036C2.60999 29.2189 2.6465 29.2554 2.76383 29.2517C3.03664 29.2431 3.31027 29.2489 3.58349 29.2489L3.58308 29.2497ZM18.1684 39.2973V39.2944C18.284 39.2944 18.3997 39.2944 18.5154 39.2944C18.6377 39.2944 18.7603 39.2944 18.8826 39.2944C18.9429 39.2944 18.997 39.3063 18.9999 39.2066C19.0081 38.8838 18.7534 38.6167 18.4321 38.6245C18.2553 38.629 18.0785 38.6315 17.9017 38.6323C17.5678 38.6339 17.3786 38.8144 17.3425 39.1435C17.3274 39.2805 17.375 39.3039 17.4952 39.2998C17.7196 39.292 17.944 39.2977 18.1684 39.2977V39.2973ZM11.7809 30.9034C11.7809 30.9842 11.7776 31.0392 11.7813 31.0933C11.7953 31.2878 11.8408 31.3161 12.0193 31.2451C12.2277 31.1622 12.4361 31.0806 12.6445 30.9969C13.1117 30.8098 13.1093 30.8107 12.9156 30.3446C12.8754 30.2482 12.8356 30.2244 12.736 30.2691C12.4943 30.377 12.2506 30.4825 12.002 30.5719C11.8236 30.6363 11.7202 30.727 11.7809 30.903V30.9034ZM15.9129 38.8157C15.8706 38.6897 15.8267 38.5827 15.7992 38.4715C15.768 38.3464 15.7159 38.33 15.5982 38.3833C15.3459 38.4981 15.0846 38.5941 14.8286 38.7016C14.493 38.8423 14.4938 38.8436 14.6329 39.1837C14.6354 39.1898 14.6395 39.196 14.6407 39.2025C14.6551 39.2854 14.6936 39.2924 14.7703 39.2637C15.119 39.1332 15.4706 39.0101 15.8214 38.8842C15.864 38.869 15.9182 38.8661 15.9133 38.8161L15.9129 38.8157ZM12.6797 39.3067C12.8964 39.2879 13.1544 39.2682 13.4112 39.2419C13.7767 39.2042 13.7763 39.2017 13.6553 38.846C13.6442 38.814 13.629 38.7829 13.6229 38.7496C13.6053 38.652 13.5626 38.6339 13.4691 38.6758C13.172 38.8087 12.8709 38.9322 12.5727 39.0614C12.5206 39.084 12.4496 39.0979 12.498 39.1898C12.5312 39.253 12.5263 39.3473 12.6797 39.3063V39.3067Z" fill="black"/>
<path d="M18.4931 26.8297C17.9709 26.3304 17.4474 25.8332 16.8874 25.3749C16.581 25.1243 16.254 24.9023 15.9316 24.6743C15.7646 24.5561 15.5837 24.5032 15.3974 24.6172C15.2108 24.7317 15.1911 24.9142 15.2054 25.119C15.2407 25.6149 15.3281 26.1076 15.3035 26.6073C15.2998 26.6836 15.3691 26.7439 15.3379 26.8223C14.778 26.8219 14.2172 26.8018 13.658 26.8256C12.9832 26.8543 12.3621 26.3489 12.1959 25.6551C11.9042 24.4396 12.7932 23.3127 14.0477 23.2922C14.273 23.2885 14.499 23.2897 14.7234 23.3073C14.8457 23.3172 14.8822 23.2934 14.9015 23.1654C15.0093 22.4458 15.3494 21.8752 15.998 21.5084C16.6643 21.1314 17.3227 21.1749 17.9824 21.5244C18.1062 21.5901 18.2174 21.7644 18.3368 21.7189C18.4254 21.6848 18.4476 21.4871 18.5071 21.3657C19.0067 20.3397 19.8124 19.7608 20.9689 19.7793C21.9309 19.7944 22.6484 20.2757 23.1493 21.0883C23.1177 21.1228 23.0874 21.1593 23.0538 21.1921C21.46 22.751 20.7117 24.5811 21.2471 26.8235C20.3293 26.8256 19.4116 26.8276 18.4939 26.8297H18.4931Z" fill="#F2F2F5"/>
<path d="M21.2465 26.8235C20.7111 24.5816 21.4594 22.7515 23.0532 21.1922C23.0868 21.1594 23.1168 21.1233 23.1488 21.0884C23.4606 20.8701 23.7551 20.6277 24.0845 20.4341C24.51 20.1842 24.9661 20.0078 25.4342 19.8609C25.5401 19.8277 25.5721 19.7818 25.5655 19.6743C25.5421 19.3088 25.5963 18.9551 25.7575 18.622C25.9179 18.3824 26.0869 18.124 26.361 18.0317C26.7294 17.9082 26.7622 17.6723 26.7536 17.3404C26.7306 16.4141 26.7408 15.4874 26.7376 14.5606C26.7408 13.6671 26.7433 12.7736 26.7478 11.8801C26.7482 11.7919 26.7441 11.7 26.7671 11.6168C26.8184 11.4317 27.0305 11.3037 27.213 11.3329C27.4181 11.3657 27.5523 11.5347 27.5511 11.7554C27.5433 13.2696 27.5359 14.7838 27.5293 16.2984C27.5293 16.3595 27.5367 16.4203 27.5404 16.4814C27.5375 16.8912 27.5351 17.3006 27.5322 17.7105C27.5318 17.7909 27.5244 17.8602 27.629 17.9045C27.9839 18.0538 28.26 18.3024 28.4737 18.6216C28.6476 18.9441 28.7059 19.2911 28.6727 19.6513C28.6583 19.806 28.7239 19.8507 28.8581 19.8979C31.0344 20.665 32.4473 22.1443 32.9958 24.4019C33.1787 25.1547 33.1521 25.9206 32.9753 26.6767C32.8965 27.0131 32.6951 27.1735 32.3492 27.1817C32.1035 27.1874 31.8574 27.1882 31.6112 27.1833C31.5058 27.1813 31.4684 27.217 31.4697 27.324C31.4742 27.6518 31.4713 27.98 31.4672 28.3082C31.4656 28.4366 31.5464 28.5384 31.5669 28.6602C31.6088 28.9055 31.5267 29.125 31.3314 29.2485C31.1563 29.3597 30.9376 29.3519 30.7751 29.2292C30.602 29.0983 30.5118 28.8399 30.6102 28.6224C30.7038 28.4161 30.682 28.2106 30.6841 28.0018C30.6861 27.7761 30.6775 27.5505 30.6828 27.3253C30.6853 27.2186 30.6484 27.1821 30.5421 27.1829C29.9752 27.1862 29.4078 27.1866 28.8409 27.1817C28.726 27.1809 28.7092 27.2293 28.7096 27.3281C28.7104 27.7449 28.7207 28.1622 28.6772 28.5777C28.6161 29.1607 28.372 29.6333 27.8423 29.9274C27.0141 30.3873 25.9798 29.9939 25.6373 29.0918C25.5011 28.7332 25.4802 28.3607 25.4806 27.9837C25.4806 27.765 25.4765 27.5464 25.4785 27.3277C25.4794 27.2424 25.4707 27.187 25.3604 27.1878C24.7795 27.1919 24.1986 27.1915 23.6177 27.1887C23.5299 27.1882 23.4979 27.2149 23.4991 27.3052C23.5032 27.6604 23.4987 28.0157 23.5028 28.371C23.5036 28.4296 23.5274 28.4899 23.5484 28.547C23.6505 28.8255 23.6025 29.0626 23.4093 29.2169C23.2345 29.3568 22.9999 29.3687 22.8194 29.2472C22.622 29.1143 22.5387 28.8284 22.6253 28.5667C22.7668 28.1392 22.6631 27.7006 22.6868 27.2678C22.6922 27.1694 22.6097 27.1903 22.5535 27.1891C22.3213 27.185 22.0887 27.1792 21.8565 27.1841C21.5763 27.1899 21.3675 27.084 21.2465 26.8248V26.8235ZM27.0752 26.3715V26.3739C28.5984 26.3739 30.1216 26.3739 31.6453 26.3739C32.309 26.3739 32.3033 26.3739 32.3271 25.6909C32.3599 24.7588 32.1183 23.9006 31.6666 23.092C30.5946 21.1721 28.3264 20.1046 26.1645 20.4989C24.85 20.7385 23.7908 21.4035 22.9728 22.4409C22.11 23.5359 21.7014 24.7744 21.9008 26.1832C21.9242 26.3481 21.9903 26.3747 22.1363 26.3747C23.7826 26.3702 25.4289 26.3719 27.0752 26.3719V26.3715ZM27.1039 27.1837C27.1039 27.1837 27.1039 27.185 27.1039 27.1854C26.8721 27.1854 26.6399 27.1887 26.4081 27.1837C26.322 27.1821 26.2859 27.2047 26.2871 27.2966C26.2933 27.7125 26.276 28.1298 26.3019 28.5445C26.3327 29.0368 26.7728 29.3929 27.2208 29.3215C27.5946 29.262 27.8719 28.9314 27.8928 28.4821C27.9108 28.0941 27.8969 27.7047 27.9039 27.3158C27.9059 27.2042 27.86 27.1788 27.7586 27.1813C27.5404 27.1874 27.3222 27.1833 27.1039 27.1833V27.1837ZM27.1211 19.6447C27.1211 19.6333 27.1211 19.6214 27.1215 19.6099C27.332 19.6218 27.5425 19.6353 27.7529 19.6439C27.8005 19.646 27.8579 19.6726 27.8834 19.5906C28.0027 19.207 27.6064 18.6483 27.1892 18.6179C26.6826 18.581 26.2806 19.0458 26.3597 19.5672C26.3749 19.6673 26.4319 19.6443 26.489 19.6447C26.6998 19.6452 26.9103 19.6447 27.1211 19.6447Z" fill="black"/>
<path d="M8.90716 21.4868C7.70516 21.4868 6.50233 21.4655 5.30074 21.4938C4.36088 21.5159 3.62901 20.702 3.58101 19.87C3.52522 18.9109 4.22221 18.0953 5.15797 18.001C5.3155 17.985 5.47181 17.9829 5.62565 18.0043C5.77128 18.0244 5.82297 17.9653 5.87384 17.8369C6.11711 17.2264 6.54212 16.8137 7.20507 16.6911C7.97263 16.5487 8.81239 17.018 9.11556 17.7479C9.18968 17.9265 9.30878 17.9602 9.47288 17.8492C10.0735 17.4435 10.8821 17.6412 11.2833 18.2935C11.3985 18.481 11.4982 18.6812 11.5216 18.899C11.5393 19.0619 11.6123 19.0787 11.7464 19.075C11.9983 19.0684 12.2498 19.0606 12.5009 19.1127C13.3558 19.2895 13.8395 20.103 13.5371 20.8673C13.4054 21.2 13.0206 21.4942 12.6362 21.4901C11.3932 21.4761 10.1498 21.4847 8.90675 21.4847V21.4872L8.90716 21.4868Z" fill="#F2F2F5"/>
<path d="M16.5556 18.9433C13.6728 18.9766 11.149 16.8979 10.5628 14.0639C10.0135 11.408 11.1765 8.81984 13.4944 7.4123C13.8037 7.22441 14.1245 7.05826 14.4585 6.91755C14.6664 6.82976 14.8449 6.86053 14.954 7.00945C15.0755 7.17559 15.0492 7.33477 14.9331 7.49886C14.376 8.28652 13.9723 9.13859 13.7635 10.0895C13.2105 12.6035 14.7313 15.2758 17.1722 16.0864C18.4513 16.511 19.7206 16.4737 20.9989 16.118C21.236 16.052 21.3997 16.0942 21.5006 16.2608C21.5958 16.4179 21.5704 16.598 21.4161 16.7633C20.2835 17.9752 18.8993 18.7001 17.2501 18.9093C17.1554 18.9212 17.0606 18.9376 16.9654 18.9413C16.8292 18.9466 16.6922 18.9425 16.5556 18.9425V18.9433ZM19.7444 17.1412C17.3474 17.2942 15.336 16.5877 13.9625 14.5821C12.6095 12.6064 12.5656 10.4858 13.5481 8.30293C11.0235 10.1511 10.411 13.561 12.342 16.0688C14.3563 18.6857 17.6858 18.6299 19.7448 17.1412H19.7444Z" fill="black"/>
<path d="M17.6211 12.7297C17.6211 12.484 17.6096 12.237 17.6256 11.9925C17.6342 11.86 17.5948 11.7747 17.4988 11.6926C17.1358 11.3817 16.7764 11.0666 16.417 10.7511C16.2784 10.6297 16.1668 10.4898 16.2168 10.2896C16.2599 10.1165 16.3772 10.0135 16.5528 9.96923C17.0348 9.84739 17.514 9.71406 17.9977 9.5996C18.156 9.56227 18.2336 9.48186 18.2902 9.33377C18.4748 8.85009 18.6766 8.37339 18.8678 7.89218C18.9384 7.71455 19.0409 7.58081 19.2473 7.56973C19.4454 7.55907 19.5582 7.68296 19.6493 7.83598C19.9004 8.25812 20.1543 8.6782 20.3996 9.10362C20.4903 9.26074 20.5892 9.35346 20.7918 9.36618C21.2886 9.39735 21.783 9.46586 22.279 9.5155C22.4373 9.5315 22.5444 9.60904 22.6117 9.75016C22.6912 9.91672 22.6305 10.0566 22.5247 10.1838C22.2371 10.5308 21.959 10.8865 21.6533 11.2172C21.4687 11.417 21.44 11.6081 21.5085 11.8637C21.6193 12.2777 21.6972 12.7014 21.7789 13.1227C21.8503 13.4891 21.5803 13.7242 21.2271 13.606C20.7812 13.4571 20.3356 13.3057 19.8942 13.1433C19.7207 13.0793 19.5779 13.0858 19.4163 13.1867C19.0286 13.4284 18.6274 13.6483 18.2352 13.8833C18.0929 13.9687 17.9534 14.0306 17.7958 13.9371C17.6272 13.837 17.5587 13.6823 17.5698 13.4879C17.5842 13.2356 17.5956 12.9833 17.608 12.731C17.6121 12.731 17.6157 12.731 17.6199 12.731L17.6211 12.7297ZM20.8837 12.6838C20.8189 12.3568 20.7877 12.0483 20.693 11.7607C20.5707 11.3887 20.6667 11.115 20.942 10.8586C21.1381 10.6765 21.3026 10.4603 21.5011 10.2367C21.0831 10.1834 20.7061 10.1337 20.3283 10.0882C20.1695 10.0689 20.0431 10.0345 19.9558 9.86544C19.7703 9.5073 19.5525 9.16557 19.3285 8.78445C19.1681 9.18772 19.0118 9.54914 18.8822 9.92C18.812 10.1206 18.7049 10.2215 18.4904 10.2642C18.1249 10.3372 17.7671 10.4504 17.3774 10.5542C17.5686 10.72 17.7286 10.8578 17.8877 10.9965C18.2643 11.3241 18.435 11.7372 18.3997 12.2358C18.3854 12.4475 18.369 12.6604 18.3915 12.8795C18.7378 12.6785 19.0721 12.4951 19.3941 12.292C19.532 12.205 19.6485 12.203 19.7921 12.2617C20.1445 12.4048 20.5014 12.5369 20.8833 12.6838H20.8837Z" fill="black"/>
<path d="M26.7373 14.5612C26.7401 15.4879 26.7299 16.4146 26.7533 17.341C26.7615 17.6728 26.7287 17.9087 26.3607 18.0322C26.0866 18.1241 25.9176 18.383 25.7572 18.6225C25.3129 18.6209 24.869 18.6246 24.4247 18.6168C23.8262 18.6057 23.395 18.305 23.1386 17.784C22.879 17.2556 22.9483 16.7334 23.3019 16.2616C23.6252 15.83 24.0678 15.6389 24.6036 15.6659C24.7431 15.6729 24.8091 15.6557 24.8379 15.4822C24.9683 14.683 25.6989 14.2219 26.4591 14.4401C26.5555 14.4676 26.645 14.5201 26.7373 14.5612Z" fill="#F2F2F5"/>
<path d="M28.4735 18.6215C28.2598 18.3024 27.9837 18.0538 27.6288 17.9044C27.5242 17.8605 27.5316 17.7908 27.532 17.7104C27.5345 17.301 27.5374 16.8911 27.5402 16.4813C27.5964 16.1293 27.5554 15.7749 27.5648 15.4217C27.5759 14.993 27.8352 14.716 28.2746 14.6828C28.8522 14.6393 29.3166 14.9716 29.4499 15.5423C29.4872 15.7019 29.5451 15.7556 29.7182 15.7585C30.5383 15.7712 31.1524 16.4083 31.1426 17.214C31.1331 18.0021 30.503 18.608 29.6829 18.615C29.2796 18.6187 28.8768 18.6195 28.4735 18.6215Z" fill="#F2F2F5"/>
<path d="M3.9865 33.4272C3.9865 34.1517 3.98856 34.8758 3.98527 35.6003C3.98404 35.8353 3.86097 35.9843 3.65134 36.0265C3.47247 36.0626 3.28787 35.9691 3.21566 35.8001C3.18325 35.7242 3.17874 35.6425 3.17874 35.5593C3.17997 34.1653 3.17874 32.7713 3.17874 31.3773C3.17874 31.3026 3.17874 31.2263 3.19146 31.1533C3.22961 30.9404 3.40807 30.7968 3.60867 30.8091C3.82979 30.823 3.98445 30.981 3.98568 31.2132C3.98897 31.9512 3.98692 32.6892 3.98692 33.4272H3.98609H3.9865Z" fill="black"/>
</svg>
