<svg width="52" height="44" viewBox="0 0 52 44" fill="none" xmlns="http://www.w3.org/2000/svg">
<path d="M50.5483 23.7026C50.906 22.6731 50.5483 21.911 49.5657 21.418C49.8348 20.6905 49.689 20.0898 49.1994 19.5378C49.0935 19.4197 49.0917 19.1558 49.1265 18.977C49.2601 18.2878 49.149 17.6767 48.5622 17.2531C48.3938 17.1333 48.1022 17.1819 47.8678 17.1541C47.9095 17.3954 47.8661 17.7132 48.005 17.8625C48.4095 18.3017 48.4442 18.6888 48.0102 19.0968C47.5935 19.4892 47.6386 19.7183 48.1768 19.9822C48.4598 20.1211 48.8105 20.5204 48.7897 20.7756C48.7688 21.0291 48.3244 21.2513 48.0588 21.477C47.9216 21.5933 47.689 21.6575 47.6369 21.7982C47.189 22.9995 47.4581 23.7877 48.557 24.6019C48.5188 24.8103 48.3904 25.055 48.4563 25.2217C48.807 26.1141 48.5275 26.9092 48.1508 27.7008C48.0866 27.8397 48.0605 28.0185 47.9546 28.1123C47.498 28.5203 47.0206 28.9039 46.4911 29.3449C46.1335 29.4716 45.4564 29.5011 45.222 29.8379C44.7446 30.5272 44.1213 30.5098 43.4304 30.5671C42.913 29.4838 42.045 29.2425 40.9756 29.647C40.0902 28.5446 39.4634 28.4248 38.3853 29.0602C37.9392 28.897 37.5416 28.7598 37.151 28.6036C37.0347 28.5567 36.8628 28.4734 36.8454 28.3831C36.6961 27.6036 36.1041 27.272 35.6857 27.1071C35.4461 26.3102 35.2621 25.7009 35.1371 25.2807C35.217 24.5116 35.2829 23.8832 35.3611 23.1419C36.243 22.7686 36.5746 21.9735 36.269 20.9232C37.3246 20.1957 37.3437 20.1593 37.4149 19.0256C38.0051 18.3295 38.4426 17.8121 38.9999 17.1541C39.5745 17.1715 40.2481 16.9128 40.6075 16.1038C40.644 16.0205 40.7863 15.9667 40.8922 15.9302C41.4634 15.7288 41.3592 15.4458 41.0207 15.0951C40.4165 14.4684 40.5624 13.9893 41.387 13.6854C41.5762 13.6177 41.6943 13.3573 41.8453 13.1855C41.6335 13.083 41.354 12.84 41.2221 12.9042C40.6787 13.1681 40.1787 13.524 39.4929 13.9511C38.46 13.7462 38.0086 14.0292 37.3819 15.491C35.8993 15.5934 35.4895 16.0673 35.4687 17.6993C34.3021 18.2444 34.1597 18.5204 34.2691 20.0742C33.2066 20.5412 32.9583 21.3902 33.3003 22.4388C32.257 23.0638 31.8698 23.7999 32.283 24.6158C32.5469 25.1366 32.6007 25.529 32.3976 26.0915C32.0868 26.9456 32.4514 27.4387 33.6719 28.1487C33.6371 29.581 33.7986 29.8032 35.1944 30.3102C35.309 30.3518 35.434 30.4525 35.4895 30.5602C36.1927 31.9091 36.8194 32.1087 37.9183 31.5688C38.8957 31.7094 39.5867 31.8084 40.4738 31.9351C40.8471 32.5792 41.6301 32.824 42.5728 32.5671C42.7898 32.8952 42.9807 33.1834 43.163 33.4612C41.9217 34.8882 42.1005 35.9819 43.6717 37.008C43.8453 37.1208 43.9616 37.4142 43.9946 37.6382C44.2342 39.2874 42.9825 40.3864 42.4165 41.7371C42.2186 42.2075 42.0658 42.6416 42.4998 42.9384C42.7498 43.1086 43.2498 43.1363 43.5224 42.9992C44.0033 42.7613 43.9582 42.2943 43.7481 41.8204C43.6509 41.5999 43.5918 41.2284 43.7099 41.0669C44.5189 39.9593 45.0224 38.7701 44.9026 37.35C45.63 38.1364 45.6856 39.0548 45.5189 40.0097C45.3453 41.0131 45.0831 42.0061 44.9738 43.0148C44.9408 43.3221 45.2168 43.8134 45.4894 43.954C45.7116 44.0669 46.2776 43.8811 46.4373 43.652C46.597 43.4228 46.5779 42.7978 46.3939 42.6554C45.8748 42.2492 45.9581 41.8048 46.0953 41.3221C46.5553 39.7128 46.6873 38.1382 45.6317 36.718C46.6699 35.3761 46.5762 34.4438 45.2637 33.265C45.4738 33.048 45.7012 32.6261 45.9043 32.6365C46.9616 32.6973 47.5536 32.1747 47.88 31.272C49.1716 31.3362 49.6508 30.9612 49.9528 29.6991C49.9824 29.5758 50.0483 29.4265 50.1455 29.3623C51.498 28.4473 51.6177 28.0984 51.0292 26.7078C51.9615 25.3658 51.8834 24.8537 50.5483 23.7026ZM39.1805 14.5708C39.71 14.5708 40.1405 14.9997 40.1405 15.5309C40.1405 16.0621 39.71 16.4927 39.1805 16.4927C38.6509 16.4927 38.2187 16.0621 38.2187 15.5309C38.2187 14.9997 38.6492 14.5708 39.1805 14.5708ZM37.0572 16.1628C37.5885 16.1628 38.0173 16.5934 38.0173 17.1229C38.0173 17.6524 37.5885 18.0847 37.0572 18.0847C36.526 18.0847 36.0954 17.6541 36.0954 17.1229C36.0954 16.5916 36.526 16.1628 37.0572 16.1628ZM35.7812 18.4683C36.3124 18.4683 36.7413 18.8989 36.7413 19.4284C36.7413 19.9579 36.3124 20.3902 35.7812 20.3902C35.25 20.3902 34.8194 19.9596 34.8194 19.4284C34.8194 18.8972 35.25 18.4683 35.7812 18.4683ZM34.7743 20.7739C35.3055 20.7739 35.7343 21.2044 35.7343 21.7357C35.7343 22.2669 35.3055 22.6957 34.7743 22.6957C34.243 22.6957 33.8125 22.2652 33.8125 21.7357C33.8125 21.2062 34.243 20.7739 34.7743 20.7739ZM33.8125 23.0794C34.3298 23.0794 34.7517 23.4874 34.7725 23.9995C34.7882 24.0099 34.8038 24.0221 34.8194 24.0325C34.8038 24.0446 34.7882 24.0551 34.7725 24.0672C34.7604 24.5846 34.335 25.0012 33.8125 25.0012C33.2899 25.0012 32.8524 24.5707 32.8524 24.0412C32.8524 23.5117 33.2812 23.0794 33.8125 23.0794ZM33.9705 27.3067C33.4392 27.3067 33.0087 26.8762 33.0087 26.3467C33.0087 25.8172 33.4392 25.3849 33.9705 25.3849C34.5017 25.3849 34.9305 25.8154 34.9305 26.3467C34.9305 26.8779 34.5 27.3067 33.9705 27.3067ZM35.3437 29.6123C34.8125 29.6123 34.3819 29.1817 34.3819 28.6522C34.3819 28.1227 34.8125 27.6904 35.3437 27.6904C35.875 27.6904 36.3055 28.121 36.3055 28.6522C36.3055 29.1834 35.875 29.6123 35.3437 29.6123ZM37.059 31.015C36.5277 31.015 36.0972 30.5845 36.0972 30.0532C36.0972 29.522 36.5277 29.0932 37.059 29.0932C37.5902 29.0932 38.019 29.522 38.019 30.0532C38.019 30.5845 37.5885 31.015 37.059 31.015ZM39.4947 31.2494C38.9652 31.2494 38.5346 30.8188 38.5346 30.2876C38.5346 29.7564 38.9652 29.3275 39.4947 29.3275C40.0242 29.3275 40.4565 29.7564 40.4565 30.2876C40.4565 30.8188 40.0259 31.2494 39.4947 31.2494ZM41.887 32.0254C41.3558 32.0254 40.9252 31.5949 40.9252 31.0636C40.9252 30.5324 41.3558 30.1036 41.887 30.1036C42.4182 30.1036 42.8471 30.5341 42.8471 31.0636C42.8471 31.5931 42.4165 32.0254 41.887 32.0254ZM44.2325 31.0636C44.7637 31.0636 45.1942 31.4942 45.1942 32.0254C45.1942 32.5567 44.7637 32.9872 44.2325 32.9872C43.7012 32.9872 43.2707 32.5567 43.2707 32.0254C43.2707 31.4942 43.7012 31.0636 44.2325 31.0636ZM45.4876 35.1243C45.4842 35.758 44.9946 36.2406 44.3488 36.2424C43.729 36.2458 43.2012 35.7319 43.2012 35.1243C43.2012 34.5167 43.729 34.0028 44.3522 34.0045C44.9981 34.0063 45.4894 34.4907 45.4876 35.1243ZM46.2342 31.824C45.7029 31.824 45.2741 31.3935 45.2741 30.8622C45.2741 30.331 45.7029 29.9022 46.2342 29.9022C46.7654 29.9022 47.1959 30.3327 47.1959 30.8622C47.1959 31.3917 46.7654 31.824 46.2342 31.824ZM48.0675 23.0794C48.0675 22.5481 48.498 22.1176 49.0292 22.1176C49.5605 22.1176 49.991 22.5481 49.991 23.0794C49.991 23.6106 49.5605 24.0412 49.0292 24.0412C48.498 24.0412 48.0675 23.6106 48.0675 23.0794ZM48.439 30.6539C47.9077 30.6539 47.4772 30.2234 47.4772 29.6939C47.4772 29.1643 47.9077 28.7321 48.439 28.7321C48.9702 28.7321 49.399 29.1626 49.399 29.6939C49.399 30.2251 48.9685 30.6539 48.439 30.6539ZM49.741 28.6522C49.2115 28.6522 48.781 28.2217 48.781 27.6904C48.781 27.1592 49.2115 26.7304 49.741 26.7304C50.2705 26.7304 50.7028 27.1592 50.7028 27.6904C50.7028 28.2217 50.2723 28.6522 49.741 28.6522ZM49.9337 26.3467C49.4042 26.3467 48.9737 25.9161 48.9737 25.3849C48.9737 24.8537 49.4042 24.4231 49.9337 24.4231C50.4632 24.4231 50.8955 24.8537 50.8955 25.3849C50.8955 25.9161 50.465 26.3467 49.9337 26.3467Z" fill="black"/>
<path d="M12.4029 2.51734C13.1061 0.559037 14.0123 -0.206575 15.3248 0.0468926C16.672 0.307305 17.1511 1.22916 17.1147 3.4826C19.1945 2.82115 21.3524 4.51383 19.9844 7.85232C20.1702 7.82975 20.3212 7.82107 20.467 7.78982C22.1632 7.4426 23.6284 8.81931 23.2552 10.5085C22.2205 15.1768 21.1597 19.8417 20.0417 24.4909C19.5278 26.6333 18.4514 28.5204 16.9272 30.121C15.7327 31.3762 14.9098 32.8102 14.4619 34.4855C13.9394 36.4404 13.3613 38.3778 12.8057 40.324C12.7536 40.5063 12.7328 40.7198 12.6217 40.857C12.5071 40.9976 12.2988 41.0618 12.1321 41.159C12.0366 40.9698 11.9411 40.7806 11.8509 40.5896C11.8439 40.574 11.863 40.5445 11.87 40.5219C12.6269 37.9438 13.3213 35.3432 14.1755 32.7963C14.4845 31.8762 15.04 30.9509 15.7171 30.2547C17.9272 27.9804 19.1233 25.2583 19.7743 22.208C20.5695 18.4841 21.4566 14.781 22.3038 11.0693C22.3559 10.8366 22.401 10.6023 22.4358 10.3679C22.5538 9.545 22.1215 8.8089 21.4167 8.61793C20.6528 8.41133 19.8681 8.80716 19.6389 9.65611C19.2969 10.9165 19.0539 12.2047 18.7778 13.4824C18.4949 14.7845 18.2396 16.0935 17.9237 17.3886C17.8699 17.6126 17.5678 17.774 17.3803 17.965C17.2935 17.7046 17.0904 17.4216 17.1372 17.189C17.882 13.5519 18.6598 9.92173 19.4289 6.28984C19.6563 5.21521 19.2257 4.3871 18.3508 4.21175C17.5157 4.04509 16.8022 4.60584 16.573 5.66138C15.8699 8.89223 15.1824 12.1283 14.4897 15.3626C14.4706 15.4564 14.481 15.5727 14.4272 15.6386C14.2432 15.8609 14.0383 16.0657 13.8422 16.2775C13.7658 16.0154 13.58 15.7289 13.6286 15.4928C14.4029 11.7411 15.2067 7.99641 16.0018 4.24821C16.106 3.75864 16.2154 3.2708 16.3057 2.77949C16.4741 1.87325 15.9897 1.07118 15.1824 0.901045C14.4168 0.739589 13.6512 1.23611 13.4515 2.13193C12.8248 4.94264 12.238 7.76204 11.6339 10.5762C11.3196 12.0415 11.0193 13.5102 10.6669 14.9668C10.6113 15.1959 10.3162 15.3678 10.1321 15.5657C10.0453 15.3088 9.84396 15.0275 9.89083 14.7984C10.5766 11.4408 11.2936 8.09016 12.0071 4.73779C12.2241 3.71697 11.8075 2.90622 10.9516 2.70483C10.1078 2.50692 9.38563 3.0642 9.14779 4.09544C9.11654 4.23432 9.08355 4.37321 9.05404 4.51383C8.34051 7.86447 7.62698 11.2168 6.91345 14.5675C6.88394 14.7064 6.88915 14.8765 6.80929 14.9772C6.70338 15.1091 6.47075 15.3018 6.39436 15.2636C6.23985 15.1873 6.06624 14.9772 6.05756 14.8157C6.04367 14.5137 6.13221 14.2046 6.19471 13.9026C6.87178 10.6648 7.53497 7.4235 8.23634 4.19092C8.75196 1.81596 10.2346 1.23611 12.4047 2.51907L12.4029 2.51734Z" fill="black"/>
<path d="M27.4267 7.75683C27.3712 7.43565 27.3139 7.06413 27.2392 6.69608C26.7531 4.28814 27.9024 3.0885 30.4076 3.49822C30.1749 2.52601 30.1194 1.55381 30.8607 0.812502C31.2114 0.461813 31.7148 0.164943 32.1957 0.0607782C33.4735 -0.215259 34.3051 0.557298 35.0186 2.51733C35.4335 2.30206 35.8276 1.99998 36.2703 1.88714C37.5272 1.56596 38.7807 2.35935 39.0949 3.67356C39.7355 6.35755 40.3432 9.05021 40.93 11.7463C40.9734 11.946 40.7494 12.2029 40.6505 12.4338C40.4682 12.2602 40.173 12.1144 40.1244 11.9095C39.5359 9.45645 38.989 6.99469 38.4213 4.53813C38.3363 4.17008 38.2529 3.78467 38.0776 3.45482C37.7564 2.85066 37.22 2.57289 36.5255 2.69962C35.8641 2.82115 35.3901 3.36975 35.3971 4.07113C35.4023 4.5416 35.4926 5.01729 35.5915 5.48082C36.121 7.97037 36.6644 10.4582 37.2026 12.946C37.2477 13.156 37.3363 13.3731 37.312 13.5762C37.2859 13.7984 37.1522 14.0067 37.0654 14.222C36.8797 14.0588 36.5724 13.9251 36.5255 13.7307C36.1314 12.064 35.7825 10.387 35.4266 8.70994C34.9874 6.63879 34.5568 4.56417 34.1193 2.49303C34.095 2.37671 34.062 2.26213 34.0256 2.14928C33.7356 1.22048 33.0047 0.720489 32.2218 0.911458C31.4076 1.11111 30.9596 1.92533 31.1558 2.89059C31.3451 3.82287 31.5621 4.74994 31.76 5.68048C32.4527 8.9391 33.1402 12.1977 33.8346 15.4564C33.9058 15.7879 34.0429 16.1924 33.5742 16.2463C33.4093 16.2654 33.0777 15.8661 33.0221 15.6126C32.3155 12.4061 31.6506 9.19083 30.9614 5.97908C30.8833 5.61103 30.7878 5.22389 30.5985 4.90618C30.2479 4.32286 29.6923 4.05029 29.0083 4.24126C28.3382 4.42876 27.9319 4.90792 27.958 5.60235C27.9805 6.21345 28.1194 6.82629 28.2479 7.42871C28.9336 10.663 29.642 13.8939 30.3086 17.1334C30.3607 17.3834 30.1524 17.6872 30.0638 17.965C29.8711 17.7462 29.5621 17.5535 29.5048 17.3053C28.9649 14.9147 28.4701 12.5137 27.9562 10.1179C27.9024 9.86443 27.8399 9.60055 27.7219 9.37486C27.3781 8.71688 26.6264 8.4148 25.9597 8.63702C25.2844 8.86271 24.8417 9.65437 25.0136 10.4304C25.6698 13.4043 26.326 16.3782 27.0153 19.3452C27.4406 21.175 27.8764 23.0048 28.3955 24.8086C28.9579 26.7652 30.043 28.4388 31.4614 29.9005C32.7964 31.279 33.4804 32.9856 33.9631 34.805C34.4405 36.5984 34.97 38.3778 35.4752 40.1625C35.5203 40.3222 35.6089 40.4976 35.5794 40.6452C35.5429 40.8274 35.4023 40.9872 35.3068 41.1573C35.1419 41.0566 34.8867 40.9941 34.8276 40.85C34.6401 40.39 34.5221 39.9004 34.3815 39.4212C33.779 37.3674 33.2443 35.2893 32.5429 33.2703C32.2305 32.371 31.7148 31.4613 31.0586 30.779C28.7965 28.4266 27.5448 25.6246 26.8729 22.4788C26.0587 18.6629 25.1316 14.8713 24.2792 11.0641C23.9059 9.39916 24.4233 8.23425 25.7219 7.85579C26.2236 7.70995 26.7878 7.78287 27.425 7.75162L27.4267 7.75683Z" fill="black"/>
<path d="M0.882077 11.4894C1.02444 13.6283 1.18763 15.7671 1.30047 17.9077C1.34735 18.8087 1.33519 19.7202 1.26402 20.6212C1.14943 22.043 1.36471 23.4371 2.06782 24.6281C3.64071 27.2912 3.86467 30.0672 3.30217 33.0359C2.87336 35.3015 2.63378 37.6035 2.31087 39.89C2.2883 40.0549 2.31087 40.2511 2.23101 40.3778C2.09907 40.5844 1.89769 40.7476 1.72408 40.9281C1.61297 40.7059 1.3838 40.4681 1.40985 40.2632C1.66331 38.2806 1.96018 36.3032 2.24317 34.3241C2.41157 33.1453 2.60427 31.97 2.73621 30.7877C2.94107 28.9509 2.49663 27.2443 1.60776 25.6402C0.720622 24.0395 0.406391 22.3364 0.413335 20.4945C0.422016 17.8799 0.217158 15.2636 0.0991045 12.6491C0.0730633 12.0797 0.00709218 11.5102 0.000147856 10.9391C-0.0120047 9.85228 0.812634 9.26201 1.87512 9.55541C3.38724 9.97207 4.18931 11.097 4.71014 12.4512C4.99138 13.1786 5.1945 13.9529 5.30388 14.7237C5.49137 16.0431 6.09727 17.0813 7.06253 17.9789C7.68578 18.5587 8.27952 19.1907 8.7743 19.8799C9.43402 20.7965 9.50519 21.8798 9.31249 22.9649C9.27777 23.1576 9.01562 23.3104 8.85764 23.4823C8.73958 23.2635 8.49132 23.0257 8.52257 22.8312C8.77257 21.3087 8.2257 20.0691 7.0851 19.1525C5.46707 17.8504 4.57299 16.2289 4.31084 14.1803C4.21709 13.4425 3.92543 12.6977 3.56953 12.038C3.28829 11.5137 2.82475 11.0467 2.34212 10.6873C2.03657 10.4599 1.50012 10.328 1.16159 10.4391C0.939368 10.5103 0.883813 11.0936 0.755343 11.4477C0.797009 11.4634 0.838675 11.4772 0.880341 11.4929L0.882077 11.4894Z" fill="black"/>
<path d="M47.4383 11.2499C47.2786 13.6006 47.105 15.8557 46.98 18.1144C46.9331 18.9442 46.9678 19.781 47.0216 20.6109C47.1345 22.3487 46.6709 23.9372 45.9522 25.5031C45.4609 26.5726 45.1501 27.7253 44.7265 28.8277C44.6415 29.0465 44.4071 29.2079 44.2404 29.3972C44.1224 29.1524 43.8533 28.859 43.9123 28.668C44.2751 27.4927 44.6206 26.2983 45.1467 25.1906C45.8359 23.7393 46.1831 22.274 46.1952 20.6577C46.2161 17.9234 46.3966 15.1908 46.513 12.4582C46.5338 11.9825 46.5945 11.5086 46.5963 11.0329C46.5998 10.4079 46.3029 10.144 45.7404 10.4218C45.1449 10.7152 44.4488 11.0989 44.1519 11.6388C43.6241 12.5971 43.2248 13.6787 43.0234 14.755C42.73 16.3279 42.0894 17.6335 40.8707 18.6664C39.9488 19.4477 39.0999 20.2897 38.9402 21.5657C38.8881 21.9824 38.9922 22.4164 38.9436 22.8348C38.9159 23.0622 38.7162 23.2671 38.5947 23.4823C38.4332 23.3174 38.1659 23.1733 38.1277 22.9823C37.77 21.2272 38.3759 19.7289 39.6884 18.6335C41.2023 17.3679 42.0287 15.8644 42.3429 13.9183C42.5148 12.8575 43.0981 11.8298 43.6571 10.8819C43.947 10.3923 44.5494 10.0346 45.0824 9.74992C46.5598 8.96174 47.7074 9.94089 47.4383 11.2516V11.2499Z" fill="black"/>
</svg>
