<svg width="20" height="19" viewBox="0 0 20 19" fill="none" xmlns="http://www.w3.org/2000/svg">
<rect width="20" height="19" fill="#1E1E1E"/>
<g id="Overview ">
<rect x="-798" y="-274" width="1440" height="1024" rx="34" fill="white"/>
<rect id="Rectangle 81" x="-467" y="-114" width="777" height="332" rx="27" fill="#F2F2F5"/>
<rect id="Rectangle 83" x="-196" y="-66" width="236" height="267" rx="19" fill="white"/>
<rect id="Rectangle 90" x="-185.5" y="-10.5" width="212" height="57" rx="13.5" fill="#F2F2F5" stroke="#239371"/>
<path id="Star 10" d="M11.7695 7.06445L11.8818 7.41016H17.9707L13.3389 10.7754L13.0449 10.9893L13.1572 11.335L14.9258 16.7803L10.2939 13.415L10 13.2012L9.70605 13.415L5.07324 16.7803L6.84277 11.335L6.95508 10.9893L6.66113 10.7754L2.0293 7.41016H8.11816L8.23047 7.06445L10 1.61719L11.7695 7.06445Z" fill="black" stroke="black"/>
</g>
</svg>
