<svg width="42" height="42" viewBox="0 0 42 42" fill="none" xmlns="http://www.w3.org/2000/svg">
<path d="M18.0052 2.67522L15.3391 5.3413V6.29087V7.24043L14.6635 6.59217L13.9878 5.93478H10.1439C6.4187 5.93478 6.29087 5.94391 6.11739 6.11739C5.95304 6.28174 5.93478 6.41869 5.93478 7.79739V9.30391L6.1813 9.49565C6.35478 9.63261 6.50087 9.66913 6.66522 9.63261C7.06696 9.53217 7.12174 9.3587 7.12174 8.19913V7.12174H10.2991H13.4674L14.4078 8.06217L15.3391 8.99348V12.1709V15.3391H12.1617H8.99348L8.05304 14.3987L7.12174 13.4674V12.2257C7.12174 10.8378 7.05783 10.6826 6.50087 10.6826C5.9987 10.6826 5.93478 10.8926 5.93478 12.5361V13.9878L6.59217 14.6635L7.24044 15.3391H6.29087H5.3413L2.66609 18.0143C0.191739 20.4978 0 20.7078 0 21C0 21.3013 0.191739 21.5113 2.67522 23.9948L5.3413 26.6609H6.29087H7.24044L6.59217 27.3365L5.93478 28.0122V31.8561C5.93478 35.5813 5.94391 35.7091 6.11739 35.8826C6.29087 36.0561 6.4187 36.0652 10.1439 36.0652H13.9878L14.6635 35.4078L15.3391 34.7596V35.7091V36.6587L18.0143 39.3339C20.4978 41.8083 20.7078 42 21 42C21.3013 42 21.5113 41.8083 23.9948 39.3248L26.6609 36.6587V35.7091V34.7596L27.3365 35.4078L28.0122 36.0652H31.8561C35.5813 36.0652 35.7091 36.0561 35.8826 35.8826C36.047 35.7183 36.0652 35.5813 36.0652 34.303C36.0652 32.7052 36.0013 32.5043 35.4809 32.5043C34.9604 32.5043 34.8783 32.6961 34.8783 33.8557V34.8783H31.71H28.5326L27.6013 33.947L26.6609 33.0065V29.8383V26.6609H29.8383H33.0065L33.947 27.6013L34.8783 28.5326V29.82C34.8783 31.2535 34.9422 31.4087 35.4991 31.4087C36.0013 31.4087 36.0652 31.1987 36.0652 29.5096V28.0122L35.4078 27.3365L34.7596 26.6609H35.7091H36.6587L39.3339 23.9857C41.8083 21.5022 42 21.2922 42 21C42 20.6987 41.8083 20.4887 39.3248 18.0052L36.6587 15.3391H35.7091H34.7596L35.4078 14.6635L36.0652 13.9878V10.1439C36.0652 6.41869 36.0561 6.29087 35.8826 6.11739C35.7091 5.94391 35.5813 5.93478 31.8561 5.93478H28.0122L27.3365 6.59217L26.6609 7.24043V6.29087V5.3413L23.9857 2.66608C21.5022 0.191738 21.2922 0 21 0C20.6987 0 20.4887 0.191738 18.0052 2.67522ZM23.3009 3.71609L25.5652 5.98043V7.16739V8.35435L23.2826 10.637L21 12.9196L18.7174 10.637L16.4348 8.35435V7.16739V5.98043L18.69 3.72522C19.9409 2.47435 20.9726 1.46087 21 1.46087C21.0274 1.46087 22.0591 2.47435 23.3009 3.71609ZM34.8783 10.29V13.4674L33.947 14.3987L33.0065 15.3391H29.8383H26.6609V12.1709V8.99348L27.5922 8.06217L28.5326 7.12174H31.7009H34.8783V10.29ZM19.3565 14.563L18.5804 15.3391H17.5122H16.4348V12.7187V10.0891L18.2791 11.9335L20.1326 13.787L19.3565 14.563ZM25.5652 12.737V15.3391H24.4878H23.4196L22.6435 14.563L21.8674 13.787L23.6935 11.9609C24.6978 10.9565 25.5287 10.1348 25.5378 10.1348C25.5561 10.1348 25.5652 11.3035 25.5652 12.737ZM21.913 15.5674L22.7804 16.4348H24.1683H25.5652V17.8226V19.2196L26.4509 20.1052L27.3457 21L26.4509 21.8948L25.5652 22.7804V24.1774V25.5652H24.1774H22.7804L21.8948 26.4509L21 27.3457L20.1052 26.4509L19.2196 25.5652H17.8226H16.4348V24.1774V22.7804L15.5491 21.8948L14.6543 21L15.5491 20.1052L16.4348 19.2196V17.8226V16.4348H17.8317H19.2196L20.087 15.5674C20.5617 15.0926 20.9726 14.7 21 14.7C21.0274 14.7 21.4383 15.0926 21.913 15.5674ZM10.637 18.7174L12.9196 21L10.637 23.2826L8.35435 25.5652H7.16739H5.98043L3.69783 23.2826L1.41522 21L3.69783 18.7174L5.98043 16.4348H7.16739H8.35435L10.637 18.7174ZM15.3391 17.5122V18.5804L14.563 19.3565L13.787 20.1326L11.9335 18.2791L10.0891 16.4348H12.7187H15.3391V17.5122ZM30.0665 18.2791L28.213 20.1326L27.437 19.3565L26.6609 18.5804V17.5122V16.4348H29.2813H31.9109L30.0665 18.2791ZM38.3022 18.7174L40.5848 21L38.3022 23.2826L36.0196 25.5652H34.8326H33.6457L31.363 23.2826L29.0804 21L31.363 18.7174L33.6457 16.4348H34.8326H36.0196L38.3022 18.7174ZM14.5813 22.6617L15.3391 23.4196V24.4878V25.5652H12.7187H10.0891L11.9152 23.7391C12.9196 22.7348 13.7596 21.913 13.787 21.913C13.8052 21.913 14.1704 22.2509 14.5813 22.6617ZM30.0848 23.7391L31.9109 25.5652H29.2813H26.6609V24.497V23.4196L27.4096 22.6709C27.8296 22.2509 28.1857 21.913 28.213 21.913C28.2404 21.913 29.0804 22.7348 30.0848 23.7391ZM15.3391 29.8291V33.0065L14.4078 33.9378L13.4674 34.8783H10.2991H7.12174V31.71V28.5326L8.05304 27.6013L8.99348 26.6609H12.1617H15.3391V29.8291ZM19.3565 27.437L20.1326 28.213L18.2791 30.0665L16.4348 31.9109V29.2813V26.6609H17.5122H18.5804L19.3565 27.437ZM25.5652 29.2813V31.9109L23.7209 30.0665L21.8674 28.213L22.6435 27.437L23.4196 26.6609H24.4878H25.5652V29.2813ZM23.3009 31.3813L25.5652 33.6457V34.8326V36.0196L23.2826 38.3022L21 40.5848L18.7174 38.3022L16.4348 36.0196V34.8326V33.6457L18.69 31.3904C19.9409 30.1396 20.9726 29.1261 21 29.1261C21.0274 29.1261 22.0591 30.1396 23.3009 31.3813Z" fill="black"/>
</svg>
